<svg xmlns="http://www.w3.org/2000/svg" viewBox="0 0 100 100">

    <defs>

        <style>
            .st0 {
                fill: #AFD6E5
            }

            .st1 {
                fill: #ffffff
            }
        </style>


        <g id="frame_1">
            <path class="st0" d="M41 55.3c3 .1 4.9-1.1 6.9-3.2 2.1-2.2 4.5-3.9 7.3-5.2 3-1.4 2.1-11.2-1.3-9.6-2.5 1.2-4.7 2.8-6.8 4.6-2.1 1.8-3.1 3.5-6.1 3.5-3.4-.1-3.5 9.8 0 9.9zM87.9 50.7c-2.5-1.5-5.3-4.8-8.4-4.2-1.3.2-2.2 1.1-3.6.9-1.5-.2-2.9-1.2-4.2-1.9-3.2-1.7-4.3 8-1.3 9.6 2.4 1.3 5.1 2.8 7.8 2 1.7-.5 2.2-1.1 3.9.1 1.5 1 2.9 2.2 4.6 3.1 2.9 1.7 4.1-8 1.2-9.6z" />
            <path class="st1" d="M35.5 89.4c1.1-1.1 2.6-1.7 3.6-2.8 1-1.1 1.6-2.6 1.8-4.1.3-1.5.3-3 .4-4.6.1-.8.2-1.5.4-2.3.2-.7.5-1.4.9-2.1-.7 1.3-1 2.9-1.2 4.4-.1 1.5-.1 3.1-.4 4.6-.3 1.5-.9 3-1.9 4.1-1 1.3-2.5 1.8-3.6 2.8zM46.1 64.3c.8-.9 1.7-1.8 2.7-2.5 1-.7 2.1-1.2 3.4-1.5 1.2-.3 2.5-.2 3.7 0 1.2.2 2.4.6 3.5 1.1-2.3-.8-4.7-1.4-7.1-.9-2.5.6-4.5 2.1-6.2 3.8zM28.8 70.9c.9-.7 1.8-1.6 2.3-2.7.5-1.1.8-2.2.9-3.4.3-2.3.3-4.7.6-7.1.3-2.3.9-4.7 2-6.8.6-1 1.3-2 2-2.9.8-.9 1.7-1.7 2.6-2.4-1.8 1.5-3.4 3.3-4.5 5.4-1.1 2.1-1.6 4.4-1.9 6.8-.3 2.3-.4 4.7-.7 7.1-.2 1.2-.4 2.4-1 3.4-.4 1-1.3 1.9-2.3 2.6z" />
            <path class="st1" d="M29.6 90.5c2.6-2.2 5.5-4.3 6.8-7.6 1.5-3.9 2.3-8.4 3.5-12.4 1.9-6.7 6.4-10.9 13.3-12.6 5.6-1.4 11.9-1.3 17.6-1.9 5.7-.6 12.2.2 17.1-3.2 1.3-.9 2.3-2 3.7-2.7 1.1-.6 2.4-.7 3.5-1.4 1.4-1 1.8-2 2-3.6.5-4.5-2.9-5.9-6.5-7.5-3.6-1.6-7.2-1.5-11-1.1-3.9.4-7.7.5-11.6.6-7.4.2-14.8 2.5-20.9 6.8-3.8 2.6-7 6.2-8.9 10.5-1.9 4.5-1.3 9.5-2.7 14.1C32.8 77 24.2 79.4 16 80.1c-.1 0 0 1.7 0 1.7 9.1-.8 17.6-3.8 19.9-13.5 1.1-5 .7-9.8 3.3-14.4 2.4-4.4 6.2-7.8 10.6-10.2 7.7-4.4 15-4.8 23.5-5 5.5-.1 11.1-2.1 16.5-.1 3.5 1.4 7.3 2.6 7.4 6.9v-1.7c-1 3.6-5 3.8-7.6 5.8-3.9 3-7.2 3.8-12.1 3.9-5.5.2-10.9 1.2-16.4 1.5-8.3.5-17.8 2.8-20.7 11.7C39 70.9 38 75 37 79.1c-1.1 4.4-4 6.9-7.4 9.7-.3.2.3 1.4 0 1.7z" />
            <path class="st1" d="M71.4 47.7c-4.4 1-8 .8-12.4.5-2.9-.2-4.7 1-6.8 3-2.5 2.3-4.5 3.4-7.6 4.9C40.7 58 39 60.2 37 64c-.2.5.2 1.3 0 1.7 2-3.7 3.7-6 7.6-7.9 3-1.4 5.1-2.6 7.6-4.9 2.2-2 3.9-3.2 6.8-3 4.4.3 8 .5 12.4-.5.1 0-.1-1.7 0-1.7z" />
            <path class="st1" d="M62 35.3c-.4-.6-.5-1.5-.4-2.2.1-.8.4-1.5.7-2.2l1-2c.3-.7.6-1.4.8-2.1-.1 1.5-1 2.9-1.6 4.2-.3.7-.6 1.4-.8 2.1 0 .8 0 1.6.3 2.2zM69.4 65.4c0-.6-.3-1.2-.6-1.7s-.8-1-1.1-1.4c-.4-.5-.8-1-.9-1.6-.2-.6-.1-1.3.1-1.8-.2.6-.2 1.2.1 1.8.2.6.6 1.1 1 1.5.4.5.8.9 1.1 1.5.2.4.4 1 .3 1.7zM85.6 56.3c.6.2 1.3 0 1.9-.4.6-.3 1.1-.7 1.6-1.2 1-.9 1.9-1.8 3.1-2.4 1.2-.6 2.4-1 3.6-1.5 1.2-.5 2.3-1.2 3.2-2.2-.4.5-.9 1-1.4 1.4-.5.4-1.1.7-1.7.9-1.2.5-2.4 1-3.6 1.6-1.2.5-2.1 1.4-3.1 2.3-.5.4-1 .8-1.6 1.1-.6.5-1.3.6-2 .4z" />
            <path class="st1" d="M77.7 56.3c1.3 1.7 1.7 4.1.5 5.9-1.2 1.8-3.4 2.6-5.2 3.5-.2.1.2 1.7 0 1.7 3.1-1.4 5.9-2.8 6.1-6.5.1-2.2 0-4.5-1.3-6.3.1.3-.4 1.3-.1 1.7zM69.1 55.2c-.4 1.3-.5 2.7-.4 4.1.1 1.5 1 2.6 2 3.6.9.9 2.1 1.9 2.1 3.2v-1.6c0 .1-.1.3-.1.4-.1.6.1 1.2 0 1.7.2-.8.3-2.1 0-2.9-.3-1-1.3-1.8-2-2.5-1-1.1-1.8-2.1-2-3.6v1.1c.1-.6.2-1.2.4-1.8.2-.5-.1-1.2 0-1.7zM66.2 37c-.8-1.2-1.5-2.1-1.5-3.7v1.6c.2-1.5.8-2.8 1.5-4.1.2-.4.5-1.2.9-1.5.5-.5.3-.5 1.2.1 3.7 2 6.6 5.3 8.2 9.1-.2-.5.2-1.3 0-1.7-1.4-3-3.4-5.7-6.1-7.7-.6-.4-2.6-2.1-3.2-1.8-.5.2-1 1.8-1.2 2.2-1.7 3.3-2 6.3.2 9.4-.3-.5.3-1.5 0-1.9zM89.9 50c0-.1 0-.1 0 0 .1-.3-.3-.6-.4-.8 0 0-.7-.6-.7-.5-.2 0 .3.5.3.6.2.2.5.6.8.7zM89.6 38.2h-.1c.3.1.3-.1.1-.2-.3-.2-.8-.4-1.2-.5h-.3c-.2 0 .5.4.5.4.3.1.7.3 1 .3z" />
        </g>

        <g id="frame_2">
            <path class="st0" d="M88.7 49.5c-2.8-1.2-5.5-2.8-8.5-3.4-2.9-.5-5.5.6-8.2-.5-3.4-1.5-4.3 8.2-1.3 9.6 1.1.5 2.3 1 3.6 1.1 1.3 0 2.6-.4 4-.4 3.3.1 6.1 1.9 9.1 3.2 3.5 1.5 4.4-8.2 1.3-9.6zM41.6 57.7c3.2-.2 6.4-1.6 8.4-4.2 1.8-2.2 2.6-5.6 5.1-7.1 2.8-1.8 1.7-11.4-1.3-9.6-2.5 1.6-3.8 4.1-5.3 6.6-1.5 2.6-3.8 4.1-6.9 4.3-3.5.3-3.3 10.2 0 10z" />
            <path class="st1" d="M30.3 91.7c1.3-1.3 2.7-2.5 4-3.8.7-.6 1.3-1.3 2-1.9.6-.7 1.3-1.3 1.7-2.1.9-1.6 1.5-3.3 2.1-5.1.6-1.7 1.2-3.5 2.1-5.1-.8 1.7-1.4 3.4-1.9 5.2-.5 1.8-1.2 3.5-2.1 5.1-.5.8-1.1 1.5-1.8 2.1-.7.7-1.3 1.3-2 1.9-1.4 1.3-2.9 2.4-4.1 3.7zM47.8 66.4c1.6-2.3 3.9-4.2 6.5-5.4 1.3-.6 2.7-1 4.1-1.1 1.4-.1 2.9 0 4.2.5-1.4-.4-2.8-.5-4.2-.4-1.4.2-2.8.6-4 1.2-1.3.6-2.5 1.3-3.6 2.2-1.1.9-2.1 1.9-3 3zM26.6 73.3c1.9-1.6 3.5-3.4 4.9-5.5.7-1 1.2-2.1 1.6-3.3.4-1.2.4-2.4.4-3.6 0-2.4.3-5 1.5-7.2 1.1-2.2 2.9-4 4.7-5.6-1.7 1.7-3.5 3.5-4.6 5.7-1.1 2.2-1.3 4.7-1.4 7.1 0 .6 0 1.2-.1 1.8 0 .6-.2 1.2-.4 1.8-.4 1.2-1 2.3-1.7 3.3-1.3 2.2-3 4-4.9 5.5zM61.4 36.2c-.5-.6-.6-1.4-.6-2.2.1-.8.3-1.5.6-2.2l.9-2.1c.3-.7.5-1.4.6-2.1 0 1.5-.8 2.9-1.3 4.3-.3.7-.5 1.4-.6 2.1 0 .8.1 1.6.4 2.2zM70.5 65.1c.2-.6 0-1.3-.5-1.8-.4-.5-.9-.9-1.4-1.4-.4-.5-.9-1-1-1.7-.1-.7.2-1.3.6-1.8-.3.6-.6 1.2-.4 1.8.1.6.6 1.1 1 1.6s.9.9 1.4 1.4c.2.3.4.6.4.9v.5c0 .2 0 .4-.1.5zM85.1 57.9c.6.2 1.3.1 1.9-.2.6-.3 1.1-.6 1.6-1 1-.8 2.1-1.7 3.3-2.1 1.2-.5 2.5-.8 3.7-1.2 1.2-.4 2.4-1 3.4-1.9-.4.5-1 .9-1.5 1.2-.6.3-1.2.6-1.8.8-1.2.4-2.5.8-3.7 1.3-1.2.5-2.2 1.3-3.3 2-.5.4-1.1.8-1.7 1-.6.3-1.3.4-1.9.1z" />
            <path class="st1" d="M22.5 92.9c2.7-2.5 5.7-4.5 8.4-6.9 3.3-2.9 4.2-5.7 6.1-9.5 2.9-5.5 7.6-12.1 13-15.3 5.7-3.3 12.7-3.6 19.1-4.3 6.4-.7 13.7.8 19.3-2.8 3.7-2.4 9.3-2.7 9.1-8.1-.2-3.9-3.7-5.5-6.9-7-4.3-2-9.1-1.4-13.7-1.2-2.8.1-5.6-.4-8.4-.4-9.3 0-15.8 4.8-22.2 10.9-3.1 3-7 5-8.7 9.2-1.6 3.9-2.1 8.1-4.7 11.6-2.1 2.9-5.1 6-8.3 7.7-4 2.1-8.9 2.4-13.2 3.8-.2.1.2 1.7 0 1.7 4.3-1.4 9.1-1.6 13.2-3.8 3.4-1.8 6.9-5.4 9-8.7 2.5-4 2.6-9 5.1-12.9 2.5-3.8 7.4-6.9 10.8-10.1 6.4-5.9 14.3-8.2 22.8-7.6 5.6.4 12.2-1.2 17.5 1 3 1.3 6.9 3 7.7 6.4v-1.7c-.2 4.8-5.3 4.8-8.6 7-4.1 2.7-7.5 2.7-12.2 2.6-6.2-.1-13.3.8-19.3 2.1-8.5 1.9-13.2 7.6-17.9 14.4-2.5 3.6-3.5 8-6.4 11.2C30 85.5 26 87.9 22.7 91c-.5.4.1 1.6-.2 1.9z" />
            <path class="st1" d="M79.3 56.5c3.5 5.2-2.2 7.6-6.3 9.2-.2.1.2 1.7 0 1.7 3-1.2 7.3-2.5 7.5-6.3.2-2.2 0-4.5-1.3-6.4.3.4-.2 1.4.1 1.8z" />
            <path class="st1" d="M70.7 55c-.4 1.3-.6 2.7-.5 4.1.2 2.8 2.7 4.6 3 7.4v-1.7c-.1.3-.1.6-.2.9-.2.5.2 1.2 0 1.7.2-.8.2-1.8.2-2.7-.2-2.8-2.8-4.6-3-7.3v1.7c0-.9.2-1.5.5-2.3.2-.6-.2-1.3 0-1.8zM64.7 36.2c-.4-.7-.6-1.4-.7-2.2v1.7c.1-1.7 1.2-3.3 2-4.7.5-.8 1.2-2.5 2.1-2.4 1.8 0 4.1 3 5 4.3 1.4 2 2.4 4.2 3.4 6.4-.2-.5.2-1.3 0-1.7-1.3-3.1-2.8-6.3-5.2-8.6-.6-.5-2.7-2.5-3.5-2.2-.5.2-1 1.5-1.3 1.8-1.8 2.7-3.7 6.3-1.8 9.4-.3-.5.2-1.4 0-1.8zM71.8 47.8c-6.9 1.9-13.2 2.7-19.7 6C46.4 56.7 40.4 59 37.2 65c-.2.5.2 1.3 0 1.7 3.2-6 9.2-8.3 14.9-11.2 6.4-3.3 12.8-4.1 19.7-6 .1 0-.2-1.7 0-1.7zM89.9 51.9c.1-.3-.3-.6-.4-.8 0 0-.7-.6-.7-.5-.2-.1.3.5.3.6.2.2.5.6.8.7zM90.4 40.1h-.2c.2 0 .5.1.4-.1-.2-.3-.8-.4-1.1-.5-.1 0-.3-.1-.4-.1-.4 0 .1.3.2.4.3.1.7.3 1.1.3z" />
        </g>

        <g id="frame_3">
            <path class="st0" d="M88.6 48.5c-2.8-1.2-5.4-2.9-8.4-3.4-2.9-.5-5.5.6-8.2-.6-3.4-1.5-4.3 8.2-1.3 9.6 2.8 1.3 4.6.7 7.5.8 3.3.1 6.1 2 9.1 3.3 3.4 1.4 4.3-8.3 1.3-9.7zM41.5 56.2c3.2-.2 6.4-1.6 8.5-4.1 1.8-2.2 2.7-5.5 5.2-7.1 2.9-1.7 1.7-11.4-1.3-9.6-2.5 1.5-3.9 4.1-5.3 6.6-1.6 2.6-3.9 4-6.9 4.2-3.7.3-3.5 10.2-.2 10z" />
            <path class="st1" d="M19.1 82.6l3.7-4.1c1.2-1.4 2.5-2.8 3.5-4.3.9-1.6 2-3.2 3.1-4.6 1.2-1.4 2.2-3 3.1-4.6-.8 1.7-1.8 3.2-3 4.7-1.1 1.5-2.2 2.9-3.1 4.6-1 1.6-2.3 2.9-3.5 4.3-1.2 1.3-2.5 2.6-3.8 4zM43.4 60c3.2-.6 6.3-1.2 9.5-1.6 1.6-.2 3.2-.3 4.8-.2 1.6.1 3.2.3 4.7.9-1.5-.5-3.1-.7-4.7-.7s-3.2.1-4.8.3c-3.2.3-6.3 1-9.5 1.3zM10.1 62.1c1.1-.9 2.4-1.6 3.7-2.2 1.3-.7 2.5-1.3 3.8-1.9 2.6-1.2 5.2-2.4 7.6-3.8.6-.4 1.2-.7 1.8-1.2.6-.4 1-1 1.5-1.5 1-1 2.1-1.9 3.3-2.7 2.3-1.6 4.7-3.3 6.9-5-2.2 1.9-4.5 3.5-6.8 5.2-1.1.8-2.2 1.8-3.3 2.7-.5.5-1 1-1.6 1.5l-1.8 1.2c-2.5 1.4-5.1 2.6-7.7 3.8L13.6 60c-1.1.6-2.4 1.3-3.5 2.1zM61.6 35c-.5-.6-.6-1.5-.4-2.3.2-.8.6-1.5.9-2.2.4-.7.8-1.3 1.2-2 .4-.7.7-1.4.8-2.2 0 .8-.3 1.6-.6 2.3-.3.7-.8 1.4-1.1 2.1-.4.7-.8 1.4-1 2.1-.2.7-.2 1.5.2 2.2zM72.2 64.5c.3-.8-.3-1.5-.9-1.9-.6-.5-1.2-.9-1.8-1.4-.6-.5-1.2-1-1.6-1.7-.2-.3-.3-.8-.2-1.2.1-.4.3-.8.5-1.1-.4.6-.5 1.5-.1 2.1.4.6 1 1.1 1.6 1.6.6.5 1.2.9 1.8 1.5.3.3.5.6.7.9.2.4.2.9 0 1.2z" />
            <path class="st1" d="M3.7 69.7c8.2-3.9 16.9-6.5 23.9-12.4 8.1-6.8 16.4-13.7 26.7-17 3.3-1 6.7-1.8 10.1-2.1 3-.2 5.7.6 8.7.8 5.8.4 11.9-1.5 17.3 1.1 2.8 1.3 6.2 2.8 7 6v-1.7c-.1 3.6-2.3 4.3-5.1 5.6-2.4 1.1-4.7 2.7-7.1 3.5-3.9 1.4-8.4.6-12.5.8-7.4.2-14.8.8-22.2 1.4-6.8.5-14.7.2-19.9 5.2-6.4 6.1-10.2 14.5-16.4 20.7-.3.3.3 1.5 0 1.7 7.4-7.5 12.1-22.3 23.5-24.5 11.5-2.2 23.8-2.4 35.5-2.8 2.9-.1 5.8.3 8.6 0 4.1-.4 7.7-3 11.4-4.8 3-1.4 5-3.4 4.3-6.9-.6-3.1-4-4.6-6.7-5.8-4.8-2.2-9.8-1.3-14.9-1.2-3.4.1-6.7-.9-10.1-.9-2.7 0-5.5.6-8.1 1.2-11.3 2.8-20.2 9.8-29 17.1-7.7 6.2-16.2 9.1-25 13.3-.2.1.3 1.6 0 1.7z" />
            <path class="st1" d="M79.1 55.4c2.7 4.1-.3 7.3-4.2 8.8-.2.1.2 1.7 0 1.7 3.1-1.2 5.3-3 5.4-6.6.1-2-.1-4-1.3-5.8.4.5-.1 1.5.1 1.9zM70.6 53.8c-.5 1.5-.7 3.1-.5 4.6.2 1.3.8 2.3 1.9 3.1.8.6 1.8 1.1 2 2.2V62c0 .2-.1.4-.1.6-.2.5.2 1.2 0 1.7.2-.8.3-2.2 0-2.9-.4-.8-1.5-1.3-2.1-1.8-1-.8-1.5-1.9-1.6-3.1v1.3c.1-.7.3-1.4.5-2.1 0-.7-.3-1.4-.1-1.9zM65.6 36.1c-.9-1.2-1.5-2.1-1.6-3.7v1.7c.2-1.6 1.5-3.1 2.4-4.4.5-.6 1.9-2.9 2.6-3.1.7-.2 2.1 1.3 2.5 1.8.8.9 1.4 1.9 2 2.9 1.2 2.3 1.9 4.8 2.7 7.2-.2-.5.2-1.2 0-1.7-1.1-3.3-2-6.9-4.2-9.7-.5-.7-2.1-2.4-3-2.1-.6.2-1.4 1.6-1.7 2-2.9 3.6-4.6 6.8-1.7 10.9-.2-.4.3-1.4 0-1.8zM71.7 46.6c-3.4.9-6.7 1.3-10.2 1.3-3.3.1-6.4-.6-9.5.6-3.2 1.3-6 2.2-9.3 2.9-2.8.6-6 1.2-7.7 3.7-.3.4.3 1.4 0 1.7 1.7-2.5 4.9-3.2 7.7-3.7 3.4-.7 6.2-1.6 9.3-2.9 3.1-1.2 6.3-.6 9.5-.6 3.5-.1 6.8-.4 10.2-1.3.2 0-.1-1.6 0-1.7z" />
            <path class="st1" d="M85.1 57.9c.6.2 1.3.1 1.9-.2.6-.3 1.1-.6 1.6-1 1-.8 2.1-1.7 3.3-2.1 1.2-.5 2.5-.8 3.7-1.2 1.2-.4 2.4-1 3.4-1.9-.4.5-1 .9-1.5 1.2-.6.3-1.2.6-1.8.8-1.2.4-2.5.8-3.7 1.3-1.2.5-2.2 1.3-3.3 2-.5.4-1.1.8-1.7 1-.6.3-1.3.4-1.9.1z" />
            <path d="M89.9 51.3c.1-.3-.3-.6-.4-.8 0 0-.7-.6-.7-.5-.2 0 .3.5.3.6.2.2.5.6.8.7zM90.3 39.5h-.2c.2 0 .5.1.4-.1-.2-.3-.8-.4-1.1-.5-.1 0-.3-.1-.4-.1-.4 0 .1.3.2.4.2.1.7.4 1.1.3z" />
        </g>

        <g id="frame_4">
            <path class="st0" d="M88.6 48.5c-2.8-1.2-5.4-2.9-8.4-3.4-2.9-.5-5.5.6-8.2-.6-3.4-1.5-4.3 8.2-1.3 9.6 2.8 1.3 4.6.7 7.5.8 3.3.1 6.1 2 9.1 3.3 3.4 1.4 4.3-8.3 1.3-9.7zM41.5 56.2c3.2-.2 6.4-1.6 8.5-4.1 1.8-2.2 2.7-5.5 5.2-7.1 2.9-1.7 1.7-11.4-1.3-9.6-2.5 1.5-3.9 4.1-5.3 6.6-1.6 2.6-3.9 4-6.9 4.2-3.7.3-3.5 10.2-.2 10z" />
            <path class="st1" d="M6.6 69c1.5-1.8 3.5-3 5.6-4.2 2-1.2 4.1-2.2 6.3-3.1 2.1-.9 4.3-1.7 6.5-2.5l3.3-1.1 3.3-1c-4.4 1.5-8.8 3-13.1 4.9-2.1.9-4.3 1.9-6.3 3s-4 2.3-5.6 4zM42.6 57c3.3.4 6.6.5 10 .6 1.7.1 3.3.2 5 .4 1.7.2 3.3.5 4.9 1.1-1.6-.5-3.2-.8-4.9-.9-1.7-.2-3.3-.3-5-.3-3.4-.3-6.7-.3-10-.9zM5.1 48.1c2.8-.1 5.5-.3 8.3-.5 2.7-.2 5.5-.5 8.2-.9 2.7-.4 5.5-.8 8.2-1.4 2.7-.6 5.4-1.3 7.9-2.4-2.5 1.1-5.2 1.9-7.9 2.5-2.7.6-5.4 1.1-8.2 1.5-5.5.8-11 1.2-16.5 1.2zM61 34.4c-.3-.7-.2-1.6.2-2.3.4-.7.9-1.3 1.4-1.9.5-.6 1.1-1.1 1.6-1.7.5-.6 1-1.2 1.3-2-.2.8-.6 1.5-1.1 2.1-.5.6-1 1.2-1.6 1.8-.5.6-1 1.2-1.4 1.8-.5.7-.7 1.5-.4 2.2zM72.2 64.5c.3-.8-.3-1.5-.9-1.9-.6-.5-1.2-.9-1.8-1.4-.6-.5-1.2-1-1.6-1.7-.2-.3-.3-.8-.2-1.2.1-.4.3-.8.5-1.1-.4.6-.5 1.5-.1 2.1.4.6 1 1.1 1.6 1.6.6.5 1.2.9 1.8 1.5.3.3.5.6.7.9.2.4.2.9 0 1.2z" />
            <path class="st1" d="M2.6 51.9c7.8-1.1 15.6-1.5 23.4-2.9 10.1-1.7 19-6.1 28.7-8.7 3.2-.9 6.6-1.7 10-2 2.9-.3 5.5.5 8.4.7 5.8.4 11.9-1.5 17.3 1.1 2.8 1.3 6.2 2.8 7 6v-1.7c-.1 3.8-2.7 4.4-5.6 5.7-2.1 1-3.9 2.3-6 3.2-4.2 1.8-9.2.9-13.7 1-7.9.3-15.1.4-22.9-.6-7.5-1-14.6-2.6-22-.3-8.3 2.6-18 6.9-24.6 12.7-.3.3.3 1.5 0 1.7 4.7-4.2 11.1-7.1 16.8-9.7 5.1-2.3 10.7-4.5 16.4-4.4 6.5.1 13.1 1.7 19.5 2.4 5.3.6 10.5.1 15.8-.1 2.6-.1 5.2-.1 7.8 0 4.6.1 7.5-1.5 11.4-3.5 3.8-1.9 7.9-3 7.1-8-1-6.5-12.1-7.6-17-7.5-7.1.2-13.6-1.1-20.5.4-10.4 2.1-19.8 7.1-30.2 9.2-8.9 1.8-18 2.3-27 3.6-.2-.1 0 1.7-.1 1.7z" />
            <path class="st1" d="M79.1 55.4c2.7 4.1-.3 7.3-4.2 8.8-.2.1.2 1.7 0 1.7 3.1-1.2 5.3-3 5.4-6.6.1-2-.1-4-1.3-5.8.4.5-.1 1.5.1 1.9zM70.6 53.8c-.5 1.5-.7 3.1-.5 4.6.2 1.3.8 2.3 1.9 3.1.8.6 1.8 1.1 2 2.2V62c0 .2-.1.4-.1.6-.2.5.2 1.2 0 1.7.2-.8.3-2.2 0-2.9-.4-.8-1.5-1.3-2.1-1.8-1-.8-1.5-1.9-1.6-3.1v1.3c.1-.7.3-1.4.5-2.1 0-.7-.3-1.4-.1-1.9zM64.8 36.6c-.6-1.1-1-2-1.1-3.2v1.7c.2-1.7 1.4-3 2.6-4.2.7-.7 2.3-2.8 3.4-3.1 1.3-.3 2.8 2.3 3.3 3.4 1.1 2.3 1.5 4.9 2 7.5-.1-.6.1-1.2 0-1.7-.6-3.2-1.1-6.9-3.3-9.5-.3-.3-1.3-1.6-1.8-1.5-.1 0-.3.3-.4.3-.8.4-1.7 1.4-2.3 2.1-1.5 1.4-3.3 3-3.5 5.2-.1 1.8.3 3.3 1.1 4.9-.3-.6.2-1.4 0-1.9zM71.7 46.6c-6.3 1-13.2.6-19.6.9-4.1.2-8.3.4-12.4.9-1.9.2-5.7.1-7.2 1.7-.3.3.3 1.4 0 1.7 1.5-1.6 5.3-1.5 7.2-1.7 4.1-.5 8.2-.7 12.4-.9 6.4-.3 13.2.1 19.6-.9.1.1-.1-1.7 0-1.7z" />
            <path class="st1" d="M84.1 56.9c.6.2 1.3.1 1.9-.2.6-.3 1.1-.6 1.6-1 1-.8 2.1-1.7 3.3-2.1 1.2-.5 2.5-.8 3.7-1.2 1.2-.4 2.4-1 3.4-1.9-.4.5-1 .9-1.5 1.2-.6.3-1.2.6-1.8.8-1.2.4-2.5.8-3.7 1.3-1.2.5-2.2 1.3-3.3 2-.5.4-1.1.8-1.7 1-.6.3-1.3.4-1.9.1z" />
            <path class="st1" d="M89.9 51.3c.1-.3-.3-.6-.4-.8 0 0-.7-.6-.7-.5-.2 0 .3.5.3.6.2.2.5.6.8.7zM90.3 39.5h-.2c.2 0 .5.1.4-.1-.2-.3-.8-.4-1.1-.5-.1 0-.3-.1-.4-.1-.4 0 .1.3.2.4.2.1.7.4 1.1.3z" />
        </g>

        <g id="frame_5">
            <path class="st0" d="M88.6 48.5c-2.8-1.2-5.4-2.9-8.4-3.4-2.9-.5-5.5.6-8.2-.6-3.4-1.5-4.3 8.2-1.3 9.6 2.8 1.3 4.6.7 7.5.8 3.3.1 6.1 2 9.1 3.3 3.4 1.4 4.3-8.3 1.3-9.7zM41.5 56.2c3.2-.2 6.4-1.6 8.5-4.1 1.8-2.2 2.7-5.5 5.2-7.1 2.9-1.7 1.7-11.4-1.3-9.6-2.5 1.5-3.9 4.1-5.3 6.6-1.6 2.6-3.9 4-6.9 4.2-3.7.3-3.5 10.2-.2 10z" />
            <path class="st1" d="M4.8 61c.4-.4 1-.6 1.5-.8.6-.2 1.1-.3 1.7-.5 1.1-.3 2.3-.5 3.4-.7l6.8-1.3c4.5-.8 9.1-1.8 13.6-2.7-2.2.5-4.5 1.1-6.8 1.5l-6.8 1.4-6.8 1.2c-1.1.2-2.3.4-3.4.7-.6.1-1.1.3-1.7.4-.5.2-1.1.4-1.5.8zM42.6 57c3.3.4 6.6.5 10 .6 1.7.1 3.3.2 5 .4 1.7.2 3.3.5 4.9 1.1-1.6-.5-3.2-.8-4.9-.9-1.7-.2-3.3-.3-5-.3-3.4-.3-6.7-.3-10-.9zM3.8 40c2.9 0 5.7.7 8.5 1.3 2.8.6 5.6 1.2 8.4 1.7 2.8.5 5.6 1 8.5 1.1h2.1c.7 0 1.4-.1 2.1-.1.7 0 1.4-.2 2.1-.3.7-.2 1.4-.4 2-.6-2.6 1.2-5.6 1.4-8.4 1.3-2.9-.1-5.7-.5-8.5-1s-5.6-1.2-8.4-1.8L8 40.7c-1.4-.4-2.8-.7-4.2-.7zM61.8 33.7c-.3-.8 0-1.6.4-2.3.4-.7 1-1.2 1.6-1.8l1.8-1.5c.6-.5 1.1-1.1 1.5-1.8-.3.8-.8 1.4-1.3 1.9-.6.6-1.2 1.1-1.7 1.6-.6.5-1.2 1-1.6 1.7-.6.6-.9 1.4-.7 2.2zM72.2 64.5c.3-.8-.3-1.5-.9-1.9-.6-.5-1.2-.9-1.8-1.4-.6-.5-1.2-1-1.6-1.7-.2-.3-.3-.8-.2-1.2.1-.4.3-.8.5-1.1-.4.6-.5 1.5-.1 2.1.4.6 1 1.1 1.6 1.6.6.5 1.2.9 1.8 1.5.3.3.5.6.7.9.2.4.2.9 0 1.2z" />
            <path class="st1" d="M2.8 43.9c7.7.2 15.3 2.4 23.1 2.9 4.2.2 8.6.2 12.8-.9 5.2-1.4 10.1-3.9 15.4-5.3 3.4-.9 6.9-1.7 10.4-2.2 3-.4 5.7.4 8.7.7 5.8.4 11.9-1.5 17.3 1.1 2.8 1.3 6.2 2.8 7 6v-1.7c-.1 4.6-6.7 6.3-10.3 8.2-4.2 2.2-8.5 1.5-13 1.6-7.1.2-13.9.8-20.9 0-7.1-.9-14.3-2.5-21.5-1.9-9.4.8-18.4 4.6-27.9 4.9V59c12.6-.4 24.3-6.2 37.1-4.6 6.3.8 12.6 2.1 19 2.3 5.2.1 10.3-.6 15.5-.6 3.1 0 6.1.5 9.1-.5 3.2-1 6.6-3.2 9.6-4.7 2.8-1.4 4.3-4.6 3-7.7-1-2.3-4.6-3.8-6.7-4.8-4.9-2.3-10.3-.9-15.5-1-3.2 0-6.2-1-9.4-.9-2.9.1-5.9.9-8.7 1.6-10.2 2.4-18.8 7.4-29.5 7-8.2-.3-16.3-2.7-24.5-2.9-.1-.1-.1 1.7-.1 1.7z" />
            <path class="st1" d="M70.6 53.8c-.5 1.3-.6 2.5-.5 3.9.1 2.7 2.2 4.6 3.8 6.6v-1.7c-.2.6-.3 1.7-.1 2.3.5 2.3 3.7.5 4.7-.5 2.5-2.6 2.6-7.8.7-10.7.3.4-.3 1.3 0 1.7 1.6 2.3 1.4 4.9-.5 7-.8.9-4.6 3.1-4.9.8v1.7c0-.7.3-1.6.1-2.3-.2-.9-1.8-2.1-2.3-2.9-1-1.4-1.6-2.5-1-4.2.1-.5-.2-1.2 0-1.7zM65.2 36.3c-.3-.9-.6-1.7-.8-2.6v1.7c.1-2.1 1.5-3.3 3-4.6.9-.7 2.4-2.4 3.6-2.6 1.3-.3 2.4 2.1 2.9 3.3 1 2.5 1.1 5.3 1.3 7.9v-1.7c-.2-3.2-.3-6.9-2.2-9.7-.5-.8-1.1-1.8-1.9-1.7-.7.1-1.9 1.3-2.5 1.8-1.6 1.2-3.9 2.8-4.2 4.9-.2 1.7.1 3.4.8 5-.2-.5.2-1.2 0-1.7zM71.7 46.6c-6.3 1-13.2.5-19.6.9-6.8.4-13.6 1.4-20.4 1.6v1.7c6.8-.2 13.6-1.2 20.4-1.6 6.4-.3 13.2.1 19.6-.9.1.1-.1-1.7 0-1.7z" />
            <path class="st1" d="M83.7 56c.7.1 1.3-.1 2-.3.6-.2 1.3-.4 1.9-.6 1.3-.5 2.5-1 3.7-1.6 1.2-.6 2.4-1.2 3.5-1.9.6-.4 1.1-.7 1.6-1.2.5-.4 1-.9 1.3-1.5-.5 1.3-1.7 2.1-2.8 2.8-1.1.7-2.3 1.4-3.5 2-1.2.6-2.5 1.1-3.7 1.5-.6.2-1.3.4-1.9.6-.8.2-1.5.4-2.1.2z" />
        </g>

        <g id="frame_6">
            <path class="st0" d="M88.8 48.5c-2.8-1.2-5.4-2.9-8.4-3.4-2.9-.5-5.5.6-8.2-.6-3.4-1.5-4.3 8.2-1.3 9.6 2.8 1.3 4.6.7 7.5.8 3.3.1 6.1 2 9.1 3.3 3.4 1.4 4.3-8.3 1.3-9.7z" />
            <path class="st1" d="M83.7 56c.7.1 1.3-.1 2-.3.6-.2 1.3-.4 1.9-.6 1.3-.5 2.5-1 3.7-1.6 1.2-.6 2.4-1.2 3.5-1.9.6-.4 1.1-.7 1.6-1.2.5-.4 1-.9 1.3-1.5-.5 1.3-1.7 2.1-2.8 2.8-1.1.7-2.3 1.4-3.5 2-1.2.6-2.5 1.1-3.7 1.5-.6.2-1.3.4-1.9.6-.8.2-1.5.4-2.1.2z" />
            <path class="st0" d="M41.7 56.2c3.2-.2 6.4-1.6 8.5-4.1 1.8-2.2 2.7-5.5 5.2-7.1 2.9-1.7 1.7-11.4-1.3-9.6-2.5 1.5-3.9 4.1-5.3 6.6-1.6 2.6-3.9 4-6.9 4.2-3.7.3-3.5 10.2-.2 10z" />
            <path class="st1" d="M3.2 57c.5-.4 1.1-.6 1.7-.8.6-.2 1.2-.3 1.8-.5 1.2-.3 2.4-.5 3.6-.7 2.4-.4 4.8-.7 7.3-.9 2.4-.2 4.9-.4 7.3-.4 2.4-.1 4.9 0 7.3.3-2.4-.2-4.9-.2-7.3-.1-2.4.1-4.9.3-7.3.5-2.4.2-4.9.5-7.3.9l-3.6.6c-.6.1-1.2.3-1.8.4-.6.2-1.2.3-1.7.7zM43.2 57c3.2.4 6.5.5 9.8.6 1.6.1 3.3.2 4.9.4 1.6.2 3.2.5 4.8 1.1-1.6-.5-3.2-.7-4.8-.9-1.6-.2-3.2-.3-4.9-.3-3.3-.3-6.6-.3-9.8-.9zM5.2 37c2.4 0 4.8.4 7.2.9 2.4.5 4.7 1.1 7.1 1.6 2.4.6 4.7 1.1 7.1 1.6 2.4.4 4.8.8 7.2.9-2.4 0-4.8-.3-7.2-.7-2.4-.4-4.8-1-7.1-1.5-2.4-.6-4.7-1.2-7.1-1.7-2.4-.5-4.8-1-7.2-1.1zM61.2 34.4c-.3-.7-.2-1.6.2-2.3.4-.7.9-1.3 1.4-1.9.5-.6 1.1-1.1 1.6-1.7.5-.6 1-1.2 1.3-2-.2.8-.6 1.5-1.1 2.1-.5.6-1 1.2-1.6 1.8-.5.6-1 1.2-1.4 1.8-.5.7-.7 1.5-.4 2.2zM71.2 65c.3-.7-.1-1.5-.4-2.1-.4-.6-.9-1.2-1.3-1.8-.4-.6-.8-1.3-.9-2-.1-.8.2-1.5.6-2.1-.4.6-.6 1.4-.5 2.1.1.7.5 1.3.9 1.9.4.6.9 1.2 1.2 1.8.5.7.8 1.5.4 2.2z" />
            <path class="st1" d="M3 54.9c7.3-.2 14.4-2.4 21.7-2.9 8.3-.5 15.8 2.2 23.9 3.3 6.5.9 12.5 1.3 19 .9 6.4-.3 13.3.3 19.5-1.8 3.9-1.3 10.5-4 10.6-8.5.1-4-2.8-5.4-6.1-7.1-3.8-2-7.6-2-11.9-1.8-2.8.1-5.5.3-8.3 0-1.6-.2-3.3-.7-5-.6-6.4.1-13.3 2.5-19.2 4.6-3.8 1.4-6.1 2.2-10.1 2.2-2.9 0-5.8-.2-8.7-.6-8.1-1.2-16.3-4.3-24.5-4.5v1.7c8.3.2 16.4 3.3 24.5 4.5 3.2.5 6.4.7 9.7.6 4.3-.1 7.5-1.7 11.6-3.1 6.8-2.2 13.7-4.3 20.8-3.3 6 .9 12.7-1.2 18.5.7 3.2 1.1 7.7 3.3 8.5 6.7v-1.7c-.2 7.2-14.9 9.7-20.1 9.8-6 .1-12.2.9-18.3.6-5.3-.3-10.7-1.1-16-2-4.3-.7-8.2-2.4-12.7-2.6-9.4-.5-18.2 2.7-27.5 2.9.1.2.1 2 .1 2z" />
            <path class="st1" d="M70.8 53.8c-.5 1.3-.6 2.6-.5 4 .1 1.1.4 2.1 1 3 .7 1 1.7 1.8 1.9 3.1V63c0 .8-.1 1.7.5 2.3 1.6 1.8 4.7-.4 5.6-1.8 1.8-2.7 1.8-7.2 0-9.9.3.4-.3 1.3 0 1.7 1.5 2.2 1.4 4.5-.2 6.6-1 1.3-3.8 3.2-5.4 1.7-.2-.2-.3-.6-.5-.8-.4-.4-.1-.1-.1 0v-.9c-.6-2.6-3.5-3.4-2.4-6.4.2-.5-.1-1.2.1-1.7zM65 36.6c-.6-1.1-1-2-1.1-3.2v1.7c.2-1.7 1.4-3 2.6-4.2.7-.7 2.3-2.8 3.4-3.1 1.3-.3 2.8 2.3 3.3 3.4 1.1 2.3 1.5 4.9 2 7.5-.1-.6.1-1.2 0-1.7-.6-3.2-1.1-6.9-3.3-9.5-.3-.3-1.3-1.6-1.8-1.5-.1 0-.3.3-.4.3-.8.4-1.7 1.4-2.3 2.1-1.5 1.4-3.3 3-3.5 5.2-.1 1.8.3 3.3 1.1 4.9-.3-.6.2-1.4 0-1.9zM71.9 49.1c-6.3-1-13.2-.5-19.6-.9-6.8-.4-13.6-1.4-20.4-1.6v1.7c6.8.2 13.6 1.2 20.4 1.6 6.4.3 13.2-.1 19.6.9-.1.1.1-1.7 0-1.7zM89.9 51.3c.1-.3-.3-.6-.4-.8 0 0-.7-.6-.7-.5-.2 0 .3.5.3.6.2.2.5.6.8.7z" />
        </g>

        <g id="frame_7">
            <path class="st0" d="M88.6 48.5c-2.8-1.2-5.4-2.9-8.4-3.4-2.9-.5-5.5.6-8.2-.6-3.4-1.5-4.3 8.2-1.3 9.6 2.8 1.3 4.6.7 7.5.8 3.3.1 6.1 2 9.1 3.3 3.4 1.4 4.3-8.3 1.3-9.7zM41.5 56.2c3.2-.2 6.4-1.6 8.5-4.1 1.8-2.2 2.7-5.5 5.2-7.1 2.9-1.7 1.7-11.4-1.3-9.6-2.5 1.5-3.9 4.1-5.3 6.6-1.6 2.6-3.9 4-6.9 4.2-3.7.3-3.5 10.2-.2 10z" />
            <path class="st1" d="M6.6 27c1.6 1.7 3.6 2.9 5.6 4.1 2 1.1 4.1 2.1 6.3 3 4.3 1.9 8.7 3.4 13.1 4.9l-3.3-1-3.3-1.1c-2.2-.8-4.4-1.6-6.5-2.5-2.1-.9-4.2-1.9-6.3-3.1-2.1-1.3-4.1-2.6-5.6-4.3zM42.6 57c3.3.4 6.6.5 10 .6 1.7.1 3.3.2 5 .4 1.7.2 3.3.5 4.9 1.1-1.6-.5-3.2-.8-4.9-.9-1.7-.2-3.3-.3-5-.3-3.4-.3-6.7-.3-10-.9zM5.1 47.9c5.5 0 11 .5 16.5 1.1 2.7.4 5.5.8 8.2 1.5 2.7.6 5.4 1.4 7.9 2.5-2.6-1.1-5.2-1.8-7.9-2.4-2.7-.6-5.4-1-8.2-1.4-2.7-.4-5.5-.7-8.2-.9-2.8-.2-5.6-.3-8.3-.4zM61 34.4c-.3-.7-.2-1.6.2-2.3.4-.7.9-1.3 1.4-1.9.5-.6 1.1-1.1 1.6-1.7.5-.6 1-1.2 1.3-2-.2.8-.6 1.5-1.1 2.1-.5.6-1 1.2-1.6 1.8-.5.6-1 1.2-1.4 1.8-.5.7-.7 1.5-.4 2.2zM72.2 64.5c.3-.8-.3-1.5-.9-1.9-.6-.5-1.2-.9-1.8-1.4-.6-.5-1.2-1-1.6-1.7-.2-.3-.3-.8-.2-1.2.1-.4.3-.8.5-1.1-.4.6-.5 1.5-.1 2.1.4.6 1 1.1 1.6 1.6.6.5 1.2.9 1.8 1.5.3.3.5.6.7.9.2.4.2.9 0 1.2z" />
            <path class="st1" d="M2.6 45.9c7.6 1 15.2 1.5 22.7 2.8 4.3.7 8.5 1.6 12.6 2.9 3.7 1.2 7 3.1 10.8 3.7 6.5 1.1 12.6 1.2 19.1.9 7.2-.3 14.3.1 21-2.7 3.9-1.6 8.8-3.5 8.5-8.3-.3-4.6-5-5.5-8.7-6.7-3.5-1.1-6.4-1.6-10.1-1.4-4.3.2-8.4-.8-12.7-.7-7.4.2-14.2 4.1-21.3 4.8-3.9.4-7.8 1.3-11.7.8-3.7-.4-7.2-1.6-10.6-3C15.6 36.3 8 33 2.6 28.1c.3.3-.3 1.5 0 1.7C8.5 35 16.7 38.6 24 41.4c7.8 3 16.5 3.4 24.5.8 4.9-1.6 9.8-3 14.9-3.7 4-.6 7.6.5 11.6.6 5.1.1 8.9-.4 13.8 1.2 3.4 1.1 7.8 1.8 8.7 5.8v-1.7c-.2 7.4-15.8 9.7-21 9.8-6.7.1-13.6 1-20.3.3-3.7-.4-7.6-.7-11.1-2-5.1-1.9-10-3.7-15.4-4.8-8.9-1.8-18-2.3-27-3.6 0 0-.2 1.7-.1 1.8z" />
            <path class="st1" d="M83.7 56c.7.1 1.3-.1 2-.3.6-.2 1.3-.4 1.9-.6 1.3-.5 2.5-1 3.7-1.6 1.2-.6 2.4-1.2 3.5-1.9.6-.4 1.1-.7 1.6-1.2.5-.4 1-.9 1.3-1.5-.5 1.3-1.7 2.1-2.8 2.8-1.1.7-2.3 1.4-3.5 2-1.2.6-2.5 1.1-3.7 1.5-.6.2-1.3.4-1.9.6-.8.2-1.5.4-2.1.2z" />
            <path class="st1" d="M79.1 55.4c2.7 4.1-.3 7.3-4.2 8.8-.2.1.2 1.7 0 1.7 3.1-1.2 5.3-3 5.4-6.6.1-2-.1-4-1.3-5.8.4.5-.1 1.5.1 1.9zM70.6 53.8c-.5 1.5-.7 3.1-.5 4.6.2 1.3.8 2.3 1.9 3.1.8.6 1.8 1.1 2 2.2V62c0 .2-.1.4-.1.6-.2.5.2 1.2 0 1.7.2-.8.3-2.2 0-2.9-.4-.8-1.5-1.3-2.1-1.8-1-.8-1.5-1.9-1.6-3.1v1.3c.1-.7.3-1.4.5-2.1 0-.7-.3-1.4-.1-1.9zM64.8 36.6c-.6-1.1-1-2-1.1-3.2v1.7c.2-1.7 1.4-3 2.6-4.2.7-.7 2.3-2.8 3.4-3.1 1.3-.3 2.8 2.3 3.3 3.4 1.1 2.3 1.5 4.9 2 7.5-.1-.6.1-1.2 0-1.7-.6-3.2-1.1-6.9-3.3-9.5-.3-.3-1.3-1.6-1.8-1.5-.1 0-.3.3-.4.3-.8.4-1.7 1.4-2.3 2.1-1.5 1.4-3.3 3-3.5 5.2-.1 1.8.3 3.3 1.1 4.9-.3-.6.2-1.4 0-1.9zM71.7 48.1c-6.3-1-13.2-.6-19.6-.9-4.1-.2-8.3-.4-12.4-.9-1.9-.2-5.7-.1-7.2-1.7.3.3-.3 1.4 0 1.7 1.5 1.6 5.3 1.5 7.2 1.7 4.1.5 8.2.7 12.4.9 6.4.3 13.2-.1 19.6.9-.1.1.1-1.7 0-1.7zM89.9 51.3c.1-.3-.3-.6-.4-.8 0 0-.7-.6-.7-.5-.2 0 .3.5.3.6.2.2.5.6.8.7zM90.3 39.5h-.2c.2 0 .5.1.4-.1-.2-.3-.8-.4-1.1-.5-.1 0-.3-.1-.4-.1-.4 0 .1.3.2.4.2.1.7.4 1.1.3z" />
        </g>

        <g id="frame_8">
            <path class="st0" d="M87.6 50.3c-2.8-1.2-5.4-2.9-8.4-3.4-2.9-.5-5.5.6-8.2-.6-3.4-1.5-4.3 8.2-1.3 9.6 2.8 1.3 4.6.7 7.5.8 3.3.1 6.1 2 9.1 3.3 3.4 1.4 4.3-8.4 1.3-9.7zM40.5 57.9c3.2-.2 6.4-1.6 8.5-4.1 1.8-2.2 2.7-5.5 5.2-7.1 2.9-1.7 1.7-11.4-1.3-9.6-2.5 1.5-3.9 4.1-5.3 6.6-1.6 2.6-3.9 4-6.9 4.2-3.7.3-3.5 10.2-.2 10z" />
            <path class="st1" d="M18.1 10.7c1.3 1.4 2.6 2.7 3.8 4 1.2 1.4 2.5 2.7 3.5 4.3.9 1.6 2 3.1 3.1 4.6 1.1 1.5 2.2 3 3 4.7-.9-1.6-2-3.1-3.1-4.6-1.2-1.4-2.3-3-3.1-4.6-1-1.6-2.2-2.9-3.5-4.3l-3.7-4.1zM43.7 31.8c2.8 1.2 5.7 2.4 8.7 2.8 3 .6 6.1.5 9-.4-1.4.5-3 .9-4.5.9-1.5.1-3.1 0-4.6-.3-3-.5-5.9-1.6-8.6-3zM9.1 31.2c1.1.9 2.4 1.5 3.7 2.1l3.9 1.8c2.6 1.2 5.2 2.4 7.7 3.8.6.4 1.2.7 1.8 1.2.6.4 1.1 1 1.6 1.5 1 1 2.1 1.9 3.3 2.7 2.3 1.7 4.6 3.3 6.8 5.2-2.3-1.7-4.6-3.4-6.9-5-1.2-.8-2.3-1.7-3.3-2.7l-1.5-1.5-1.8-1.2c-2.5-1.4-5.1-2.6-7.6-3.8-1.3-.6-2.6-1.2-3.8-1.9-1.6-.7-2.8-1.4-3.9-2.2zM62.5 36.4c-.5-.6-.5-1.5-.3-2.3.2-.8.6-1.5 1-2.1.4-.7.8-1.3 1.2-2 .4-.7.7-1.4.9-2.2 0 .8-.3 1.6-.7 2.3-.4.7-.8 1.4-1.2 2-.4.7-.8 1.3-1 2.1-.2.7-.3 1.5.1 2.2zM71.2 67c.3-.8-.3-1.5-.9-1.9-.6-.5-1.2-.9-1.8-1.4-.6-.5-1.2-1-1.6-1.7-.2-.3-.3-.8-.2-1.2.1-.4.3-.8.5-1.1-.4.6-.5 1.5-.1 2.1.4.6 1 1.1 1.6 1.6.6.5 1.2.9 1.8 1.5.3.3.5.6.7.9.2.4.2.8 0 1.2zM84.2 58.2c.6.2 1.3 0 1.9-.2.6-.3 1.1-.7 1.6-1 1-.8 2-1.7 3.3-2.2 1.2-.5 2.5-.8 3.7-1.2 1.2-.4 2.4-1 3.3-1.9-.4.5-.9.9-1.5 1.3-.6.3-1.2.6-1.8.8-1.2.5-2.5.8-3.7 1.3-1.2.5-2.2 1.3-3.3 2.1-.5.4-1.1.8-1.7 1-.5.2-1.2.3-1.8 0z" />
            <path class="st1" d="M8.5 28.2c6.2 3.2 12.6 6.2 18.4 10 6.6 4.3 11.9 10.7 19.5 13.4 7.6 2.6 15.4 6 23.5 5.4 4-.3 8.2.4 12.1-.4 3.5-.7 5.6-3.2 8.8-4.4 3.5-1.4 6.1-2.4 5.5-6.6-.5-3.7-5.2-6-8.5-7.1-4.1-1.4-8.8-.5-13.1-.4-4.4.1-8.8-1-13.2-1.3-4.9-.3-9.2.2-14-1.2-2.5-.7-4.6-1.4-7.2-1.5-1.7 0-3.5.4-5.1 0-3.1-.6-4.2-3.7-5.6-6.2-1.9-3.4-4-5.4-6.9-8-3.5-3-6.3-6.7-9.6-10 .3.3-.3 1.5 0 1.7 6.2 6.1 13.1 12 17.4 19.6 2.1 3.7 3.4 4.6 7.7 4.6 5-.1 9.1 1.8 14 2.5 2.2.3 4.4 0 6.6 0 4.8 0 9.4 1.3 14.2 1.4 5.5.2 11.2-1.4 16.4 1 2.8 1.3 6.2 2.8 7 6V45c-.1 4.8-4.4 4.4-7.6 6.3-3.5 2.1-6 3.6-10.3 3.6-4.8 0-10 .7-14.8 0-4.6-.7-8.9-2.8-13.3-4.1-8.8-2.6-14.2-7.9-21.5-13.2-6.2-4.3-13.5-7.6-20.4-11.1.2.1-.2 1.6 0 1.7z" />
            <path class="st1"  d="M78.1 57.9c2.7 4.1-.3 7.3-4.2 8.8-.2.1.2 1.7 0 1.7 3.1-1.2 5.3-3 5.4-6.6.1-2-.1-4-1.3-5.8.4.5-.1 1.5.1 1.9zM69.6 56.3c-.5 1.5-.7 3.1-.5 4.6.2 1.3.8 2.3 1.9 3.1.8.6 1.8 1.1 2 2.2v-1.7c0 .2-.1.4-.1.6-.2.5.2 1.2 0 1.7.2-.8.3-2.2 0-2.9-.4-.8-1.5-1.3-2.1-1.8-1-.8-1.5-1.9-1.6-3.1v1.3c.1-.7.3-1.4.5-2.1 0-.7-.3-1.4-.1-1.9zM63.7 36.4c-.4-.5-.6-.5-.7-1.2v1.7c.2-1.7 1.3-3.2 2.2-4.5.4-.5 1.8-3.1 2.5-3.3 1.5-.3 3.8 2.6 4.5 3.6 1.4 2.1 2.3 4.5 3.3 6.8-.2-.5.2-1.2 0-1.7-1.3-3.1-2.4-6.5-5-8.8-.6-.6-2.2-1.9-2.9-1.6-.6.2-1.3 1.6-1.6 2.1-1.5 2.1-4.5 6.1-2.3 8.6-.3-.2.3-1.3 0-1.7zM70.7 44.9c-3.4-.9-6.7-1.3-10.2-1.3-3.3-.1-6.4.6-9.5-.6-3.2-1.3-6-2.2-9.3-2.9-2.8-.6-6-1.2-7.7-3.7.3.4-.3 1.3 0 1.7 1.7 2.5 4.9 3.2 7.7 3.7 3.4.7 6.2 1.6 9.3 2.9 3.1 1.2 6.3.6 9.5.6 3.5.1 6.8.4 10.2 1.3-.1 0 .2-1.6 0-1.7zM88.9 52.1c.1-.3-.3-.6-.4-.8 0 0-.7-.6-.7-.5-.2 0 .3.5.3.6.2.3.5.7.8.7zM89.3 40.4h-.2c.2 0 .5.1.4-.1-.2-.3-.8-.4-1.1-.5-.1 0-.3-.1-.4-.1-.4 0 .1.3.2.4.2.1.7.3 1.1.3z" />
        </g>

        <g id="frame_9">
            <path class="st0" d="M87.6 51.3c-2.8-1.2-5.4-2.9-8.4-3.4-2.9-.5-5.5.6-8.2-.6-3.4-1.5-4.3 8.2-1.3 9.6 2.8 1.3 4.6.7 7.5.8 3.3.1 6.1 2 9.1 3.3 3.4 1.4 4.3-8.4 1.3-9.7zM40.5 60c3.2-.2 6.4-1.6 8.5-4.1 1.8-2.2 2.7-5.5 5.1-7.1 2.9-1.7 1.7-11.4-1.3-9.6-2.5 1.5-3.9 4.1-5.3 6.6-1.6 2.6-3.9 4-6.9 4.2-3.6.2-3.4 10.1-.1 10z" />
            <path class="st1" d="M25.6 5c.6.6 1.3 1.1 1.9 1.7.6.6 1.3 1.1 1.9 1.7 1.2 1.2 2.4 2.4 3.4 3.7 1 1.3 2 2.7 2.8 4.2.8 1.5 1.5 3 2 4.7-.6-1.6-1.3-3.1-2.1-4.6-.9-1.5-1.8-2.8-2.9-4.1-1-1.3-2.2-2.6-3.4-3.8C28 7.3 26.7 6.2 25.6 5zM46.6 30.4c.9 1.1 1.9 2.1 3 3 1.1.9 2.3 1.6 3.6 2.2 1.3.6 2.6 1 4 1.1 1.4.1 2.8 0 4.2-.4-1.3.5-2.8.7-4.2.6-1.4-.1-2.8-.5-4.1-1.1-2.6-1.3-4.9-3.1-6.5-5.4zM25.3 23.6c1.9 1.5 3.7 3.3 5 5.3.7 1 1.3 2.1 1.7 3.3.2.6.3 1.2.4 1.8.1.6 0 1.2.1 1.8.1 2.4.4 4.9 1.5 7.1 1.1 2.2 2.9 3.9 4.6 5.7-1.8-1.6-3.6-3.4-4.8-5.6-1.2-2.2-1.5-4.7-1.6-7.2 0-1.2 0-2.5-.4-3.6-.4-1.2-1-2.2-1.7-3.2-1.3-2-3-3.8-4.8-5.4zM62.5 38c-.5-.6-.6-1.4-.5-2.2.1-.8.3-1.5.6-2.2l.9-2.1c.3-.7.6-1.4.7-2.1 0 1.5-.8 2.9-1.3 4.3-.3.7-.5 1.4-.6 2.1-.2.7-.2 1.5.2 2.2zM69.3 68c.2-.6 0-1.3-.4-1.8s-.9-.9-1.4-1.4c-.4-.5-.9-1-1-1.7-.1-.7.2-1.3.6-1.8-.3.6-.6 1.2-.4 1.8.1.6.5 1.1 1 1.6.4.5.9.9 1.3 1.4.2.3.4.6.4.9v.5c0 .1 0 .3-.1.5zM84.1 60.3c.6.2 1.3 0 1.9-.2.6-.3 1.1-.7 1.6-1 1-.8 2-1.7 3.3-2.2 1.2-.5 2.5-.8 3.7-1.2 1.2-.4 2.4-1 3.3-1.9-.4.5-.9.9-1.5 1.3-.6.3-1.2.6-1.8.8-1.2.5-2.5.8-3.7 1.3-1.2.5-2.2 1.3-3.3 2.1-.5.4-1.1.8-1.7 1-.4.1-1.1.2-1.8 0z" />
            <path class="st1" d="M10.1 16.5c3.3 1 6.8 1.4 10.1 2.4 3.8 1.2 6.3 3.4 9 6.3 2.3 2.3 3.9 4.6 5.1 7.7 1.2 3.1 1.6 6.5 3.6 9.2 2.1 2.8 5.7 4.9 8.3 7.4 2.9 2.7 5.7 5.4 9.4 7 3.6 1.6 7.6 2.6 11.5 2.6 4.3 0 9.2.1 13.5-.3 3.8-.4 5.9-2.7 9.1-4.2 2.5-1.2 5.7-1.1 6.5-4.3.5-2-.1-4.8-1.6-6.1-5.2-4.8-12.5-4.3-19-4.1-4.2.1-8.4-.8-12.6-1.1-3.9-.4-7.8-.7-11.5-2.2-6.8-2.7-11.5-9.2-15.2-15.3-2.1-3.4-2.9-6.8-5.9-9.7-3-2.8-6.5-5-9.5-7.7.3.3-.3 1.5 0 1.7 2.9 2.6 6.1 4.7 9 7.3 3.2 2.9 4 6 6 9.6 3.3 5.8 8 12.4 14.1 15.3 3.8 1.8 8 2.3 12.2 2.7 4.8.4 9.4 1.4 14.3 1.1 4.4-.2 8.9-.7 13 1.3 2.8 1.3 6 2.6 6.7 5.8v-1.7c-.1 4.8-5.3 4.9-8.5 7.1-4.5 3-8.2 2.7-13.4 2.7-5.8 0-10.7.7-16.4-1.3-4.8-1.6-8.2-4.5-11.8-7.9-3-2.9-7.4-5.2-9.4-9-2-4-2.3-8.5-4.9-12.2-2.2-3.1-5.4-6.4-8.7-8.1-4-2.1-8.9-2.3-13.2-3.7.4 0 0 1.7.2 1.7z" />
            <path class="st1" d="M78.2 59c3.5 5.2-2.3 7.6-6.4 9.1-.2.1.2 1.7 0 1.7 3-1.2 7.3-2.4 7.6-6.2.2-2.2 0-4.5-1.2-6.4.2.5-.3 1.4 0 1.8z" />
            <path class="st1" d="M69.6 57.4c-.5 1.3-.6 2.7-.5 4.1.2 2.8 2.6 4.7 2.9 7.4v-1.7c-.1.3-.1.6-.2.9-.2.5.2 1.2 0 1.7.3-.9.3-2 .1-3-.3-2.9-3.4-4.8-2.4-7.7.3-.4-.1-1.1.1-1.7zM63.8 38.7c-.5-.8-.7-1.4-.7-2.3v1.7c.1-1.6 1.1-3.1 1.9-4.5.5-.9 1.3-2.6 2.2-2.7 1.7-.2 4.2 3.2 5 4.3 1.4 2 2.4 4.2 3.3 6.5-.2-.5.2-1.2 0-1.7-1.2-2.9-2.6-6-4.8-8.3-.6-.6-2.8-2.9-3.8-2.6-.4.1-1 1.4-1.2 1.7-1.9 2.8-3.9 6.4-1.9 9.6-.3-.4.3-1.3 0-1.7zM70.7 46.9c-6.9-1.8-13.2-2.6-19.7-5.8C45.3 38.2 39.2 36 36 30c.2.4-.2 1.3 0 1.7 3.2 5.9 9.2 8.2 15 11.1 6.5 3.2 12.8 4 19.7 5.8-.1.1.2-1.6 0-1.7zM88.9 54.2c.1-.3-.3-.6-.4-.8 0 0-.7-.6-.7-.5-.2 0 .3.5.3.6.2.2.5.6.8.7zM89.3 42.4h-.2c.2 0 .5.1.4-.1-.2-.3-.8-.4-1.1-.5-.1 0-.3-.1-.4-.1-.4 0 .1.3.2.4.3.1.7.3 1.1.3z" />
        </g>

        <g id="frame_10">
            <path class="st0" d="M88.8 51.3c-2.6-1.2-5.7-4.3-8.7-3.6-1.1.3-2 1.2-3.2 1.3-1.6.1-3.3-.9-4.8-1.5-3.5-1.5-4.3 8.2-1.3 9.6 2.4 1.1 5.3 2.5 7.9 1.4 1.5-.6 2-1.3 3.6-.5 1.8.8 3.3 2.1 5.1 2.9 3.4 1.6 4.4-8.1 1.4-9.6zM41.7 57.9c2.8-.2 4.7-1.2 6.5-3.4 2-2.4 4.2-4.5 7-6.1 2.9-1.7 1.8-11.3-1.3-9.6-2.5 1.4-4.7 3.3-6.7 5.4-1.8 1.9-2.7 3.6-5.5 3.8-3.5.2-3.4 10.1 0 9.9z" />
            <path class="st1" d="M39.3 4.2c1 1.1 2.5 1.8 3.5 3s1.5 2.8 1.6 4.3c.1 1.5 0 3.1 0 4.6 0 1.5.2 3.1.8 4.5-.3-.7-.6-1.4-.8-2.2-.1-.8-.2-1.5-.2-2.3 0-1.5.1-3.1-.1-4.6-.1-1.5-.5-3-1.5-4.2-.9-1.2-2.3-1.9-3.3-3.1zM47.9 30.1c1.5 1.9 3.4 3.5 5.8 4.2 2.3.7 4.8.4 7.1-.3-1.1.4-2.3.7-3.6.8-1.2.1-2.5 0-3.7-.3-1.2-.4-2.3-1-3.2-1.8-.9-.7-1.7-1.6-2.4-2.6zM31.2 22.2c.9.8 1.7 1.7 2.1 2.8.5 1.1.6 2.3.7 3.5.1 2.4 0 4.7.1 7.1.1 2.4.4 4.7 1.4 6.9.9 2.2 2.4 4.1 4.1 5.8-.9-.8-1.7-1.7-2.4-2.6-.7-1-1.3-2-1.8-3.1-1-2.2-1.3-4.6-1.5-7-.1-2.4 0-4.8-.1-7.1-.1-1.2-.2-2.4-.7-3.5-.3-1.1-1-2-1.9-2.8zM69.4 60.3c-.4.6-.4 1.4-.2 2 .2.7.6 1.3 1 1.8.4.6.8 1.2 1.1 1.8.3.6.6 1.3.6 2.1-.1-.7-.4-1.4-.8-2l-1.2-1.8c-.4-.6-.8-1.2-1-1.9 0-.6.1-1.5.5-2zM63.3 31.2c.3.5.4 1.2.4 1.8-.1.6-.2 1.2-.4 1.8-.2.6-.3 1.2-.3 1.8 0 .6.3 1.2.7 1.6-.5-.4-.8-1-.9-1.6-.1-.6 0-1.3.2-1.9.2-.6.3-1.2.4-1.8.1-.5.1-1.1-.1-1.7zM85.1 60.5c.6.2 1.3.1 1.9-.2.6-.3 1.1-.6 1.6-1 1-.8 2.1-1.6 3.3-2.1 1.2-.5 2.5-.8 3.7-1.2 1.2-.4 2.4-1 3.4-1.9-.4.5-1 .9-1.5 1.2-.6.3-1.2.6-1.8.8-1.2.4-2.5.7-3.7 1.3-1.2.4-2.2 1.3-3.3 2-.5.4-1.1.7-1.7 1-.6.3-1.3.4-1.9.1z" />
            <path class="st1" d="M19.2 11.9C25.3 13 32.7 15 36 20.7c3.1 5.4 1.4 11.7 2.8 17.5 1.9 7.7 8.2 13.4 15.1 16.9 3.4 1.7 7.1 3.2 10.8 3.8 4.6.7 9.4 0 14.1.2 3.5.1 6.6-.5 9.6-2.4 1.2-.8 2.2-1.6 3.5-2.1 1.5-.5 3.1-.6 4.3-1.8 1.2-1.2 1.5-3.5 1.2-5.2-1-5.6-10.5-7.5-15-7.6-8.3 0-16.8-.1-25-2-7.5-1.7-13.7-6.2-15.2-14-.7-3.9-1.4-7.9-2.2-11.8-.8-4.1-3.6-6.7-6.4-9.5.3.3-.3 1.5 0 1.7 2.5 2.4 5.1 4.7 6.1 8.1 1.2 3.9 1.6 8.6 2.5 12.6 1.4 6.8 5.5 11.4 12.3 13.7 8 2.7 17.9 3.1 26.3 2.9 5.1-.1 15.5 1.2 16.9 7.5v-1.7c-.2 4.8-5.4 4.8-8.6 6.9-4.5 2.9-8.3 2.6-13.4 2.5-5.8-.1-10.7.5-16.4-1.5-4.7-1.7-9.3-4.2-13.1-7.6-3.3-3.1-6.1-7-7.2-11.5-.8-3.4-.4-6.9-.8-10.3-1.1-10.5-9.4-14.4-18.8-16-.1.2-.3 1.9-.2 1.9z" />
            <path class="st1" d="M79.7 58.6c2.1 4.7-1.8 7-5.6 8.5-.2.1.2 1.7 0 1.7 3-1.2 6.1-2.5 6.3-6.1.1-2 .1-4.1-.7-5.9.3.5-.2 1.3 0 1.8z" />
            <path class="st1" d="M70.4 57.7c-.2 1.1-.3 2.6 0 3.7.5 2.4 3.3 3.6 3.6 6v-1.7c0 .2-.1.5-.1.7-.2.5.2 1.2 0 1.7.2-.9.3-2.1 0-3-.8-2.5-3.5-3.4-3.6-6.4v1.7c0-.3.1-.7.1-1 .1-.5-.1-1.1 0-1.7zM65.8 39.2c-1-1.2-1.7-2.1-1.8-3.6v1.7c.1-1.7.8-3.4 1.5-5s1-1.3 2.7-.4c3.7 1.9 6.6 5.1 8.4 8.9-.2-.5.2-1.3 0-1.7-1.4-3.1-3.6-5.7-6.4-7.7-.7-.5-3.1-2.4-4-2.1-.3.1-.8 1.8-.9 2-1.4 3.5-1.8 6.6.7 9.6-.5-.3.1-1.4-.2-1.7zM71.8 47c-4.3-1.4-7.9-1.4-12.3-1.5-2.9-.1-4.6-1.4-6.6-3.5-2.3-2.5-4.2-3.8-7.2-5.5-3.7-2.2-5.2-4.6-6.9-8.4.2.5-.2 1.3 0 1.7 1.7 3.8 3.2 6.3 6.9 8.4 2.9 1.6 4.9 3 7.2 5.5 2 2.1 3.6 3.5 6.6 3.5 4.4.1 8 .2 12.3 1.5-.2 0 .2-1.6 0-1.7zM89.9 54.5c.1-.3-.3-.6-.4-.8 0 0-.7-.6-.7-.5-.2-.1.3.5.3.6.2.2.5.6.8.7zM90.5 42.7h-.2c.2 0 .5.1.4-.1-.2-.3-.8-.4-1.1-.5-.1 0-.3-.1-.4-.1-.4 0 .1.3.2.4.2.1.7.3 1.1.3z" />
        </g>


    </defs>

    <use href="#">
        <animate id="A1" attributeName="href" from="#frame_1" to="#frame_1" begin="0;A18.end" dur="200ms" />
        <animate id="A2" attributeName="href" from="#frame_2" to="#frame_2" begin="A1.end" dur="200ms" />
        <animate id="A3" attributeName="href" from="#frame_3" to="#frame_3" begin="A2.end" dur="200ms" />
        <animate id="A4" attributeName="href" from="#frame_4" to="#frame_4" begin="A3.end" dur="200ms" />
        <animate id="A5" attributeName="href" from="#frame_5" to="#frame_5" begin="A4.end" dur="200ms" />
        <animate id="A6" attributeName="href" from="#frame_6" to="#frame_6" begin="A5.end" dur="200ms" />
        <animate id="A7" attributeName="href" from="#frame_7" to="#frame_7" begin="A6.end" dur="200ms" />
        <animate id="A8" attributeName="href" from="#frame_8" to="#frame_8" begin="A7.end" dur="200ms" />
        <animate id="A9" attributeName="href" from="#frame_9" to="#frame_9" begin="A8.end" dur="200ms" />
        <animate id="A10" attributeName="href" from="#frame_10" to="#frame_10" begin="A9.end" dur="200ms" />
        <animate id="A11" attributeName="href" from="#frame_9" to="#frame_9" begin="A10.end" dur="200ms" />
        <animate id="A12" attributeName="href" from="#frame_8" to="#frame_8" begin="A11.end" dur="200ms" />
        <animate id="A13" attributeName="href" from="#frame_7" to="#frame_7" begin="A12.end" dur="200ms" />
        <animate id="A14" attributeName="href" from="#frame_6" to="#frame_6" begin="A13.end" dur="200ms" />
        <animate id="A15" attributeName="href" from="#frame_5" to="#frame_5" begin="A14.end" dur="200ms" />
        <animate id="A16" attributeName="href" from="#frame_4" to="#frame_4" begin="A15.end" dur="200ms" />
        <animate id="A17" attributeName="href" from="#frame_3" to="#frame_3" begin="A16.end" dur="200ms" />
        <animate id="A18" attributeName="href" from="#frame_2" to="#frame_2" begin="A17.end" dur="200ms" />


        <!--<animate id="bb" attributeName="x" from="-150" to="250" begin="0;bb.end" dur="8000ms" />-->
    </use>
</svg>
