<svg xmlns="http://www.w3.org/2000/svg" xmlns:xlink="http://www.w3.org/1999/xlink" width="16" height="16" viewBox="0 0 16 16">
    <defs>
        <path id="a" d="M4.001 5.333H1.932a.369.369 0 0 1-.363-.374c0-.206.162-.374.363-.374h1.799a3.273 3.273 0 0 0-.439-1.341c-.602.571-1.364.967-2.22 1.066a.367.367 0 0 1-.402-.33.372.372 0 0 1 .32-.413 3.165 3.165 0 0 0 1.845-.9 3.079 3.079 0 0 0-1.846-.93.373.373 0 0 1-.32-.415.368.368 0 0 1 .404-.328 3.79 3.79 0 0 1 2.234 1.108c.26-.4.43-.862.502-1.354H1.932A.369.369 0 0 1 1.57.374c0-.206.162-.374.363-.374h2.07c1.473 0 2.86.59 3.904 1.663l.604.62a.548.548 0 0 1 0 .767l-.604.62a5.418 5.418 0 0 1-3.905 1.663zm3.853-2.667l-.462-.474A4.716 4.716 0 0 0 4.536.781a4.12 4.12 0 0 1-.75 1.9 4.01 4.01 0 0 1 .67 1.882 4.711 4.711 0 0 0 2.936-1.422l.462-.475zm-2.902 11.63l.291-.297-.29-.295a3.396 3.396 0 0 0-1.993-.982c-.074.473-.254.91-.522 1.288.249.375.409.807.466 1.273a3.4 3.4 0 0 0 2.048-.988zm.471-1.07l.443.448a.459.459 0 0 1-.001.652l-.442.448A4.063 4.063 0 0 1 2.513 16H.994a.336.336 0 0 1-.333-.339c0-.187.15-.338.333-.338h1.246a2.288 2.288 0 0 0-.268-.797 2.918 2.918 0 0 1-1.64.734.336.336 0 0 1-.33-.302.338.338 0 0 1 .294-.374A2.263 2.263 0 0 0 1.559 14a2.193 2.193 0 0 0-1.264-.605.338.338 0 0 1 .077-.673 2.856 2.856 0 0 1 1.62.764c.148-.244.251-.517.304-.808h-1.3a.336.336 0 0 1-.334-.338c0-.187.15-.339.333-.339h1.517c1.098 0 2.132.435 2.911 1.225zm9.075-3.438L15.231 9l-.733-.788c-1.12-1.203-2.563-1.927-4.118-2.08a5.913 5.913 0 0 1-1.073 2.887c.548.816.89 1.798.96 2.856 1.596-.13 3.083-.856 4.231-2.087zm1.33-1.228c.23.247.23.633 0 .88l-.827.889c-1.404 1.508-3.268 2.338-5.246 2.338h-2.83c-.198 0-.356-.172-.356-.383 0-.212.158-.382.355-.382H9.54a4.983 4.983 0 0 0-.728-2.291c-.818.86-1.887 1.445-3.083 1.59a.36.36 0 0 1-.04.003c-.18 0-.332-.145-.353-.34-.022-.21.118-.4.314-.423 1.06-.128 2.004-.663 2.717-1.44-.695-.799-1.64-1.35-2.719-1.484-.195-.025-.335-.214-.312-.424.022-.21.2-.357.394-.337 1.221.153 2.297.76 3.099 1.651.448-.669.736-1.457.825-2.309h-2.73c-.197 0-.355-.171-.355-.382 0-.212.158-.383.355-.383h2.831c1.98 0 3.842.83 5.246 2.338l.827.889z"/>
    </defs>
    <g fill="none" fill-rule="evenodd">
        <mask id="b" fill="#fff">
            <use xlink:href="#a"/>
        </mask>
        <use fill="#1D1D1B" xlink:href="#a"/>
        <g fill="#00232C" fill-rule="nonzero" mask="url(#b)">
            <path d="M0 0h16v16H0z"/>
        </g>
    </g>
</svg>
