<svg xmlns="http://www.w3.org/2000/svg" xmlns:xlink="http://www.w3.org/1999/xlink" width="24" height="24" viewBox="0 0 24 24">
    <defs>
        <path id="a" d="M12.522 15.858v-7.8c0-.16.076-.28.229-.36.15-.079.335-.12.55-.12.217 0 .402.041.553.12.152.08.229.2.229.36v3.132h2.7V8.058c0-.16.075-.28.227-.36.153-.079.336-.12.552-.12.216 0 .4.041.552.12.152.08.228.2.228.36v7.8c0 .152-.078.272-.234.36a1.09 1.09 0 0 1-.546.132c-.216 0-.4-.044-.552-.132-.152-.088-.227-.208-.227-.36v-3.443h-2.7v3.443c0 .152-.08.272-.235.36a1.093 1.093 0 0 1-.546.132c-.216 0-.4-.044-.551-.132-.153-.088-.23-.208-.23-.36zm-6.864-2.183v-3.35c0-.942.254-1.636.762-2.081.508-.443 1.174-.666 1.998-.666.847 0 1.538.209 2.07.624.532.416.798.977.798 1.68 0 .289-.063.485-.186.589-.125.103-.322.156-.594.156-.512 0-.772-.164-.78-.492-.024-.353-.124-.638-.3-.858-.176-.22-.492-.331-.948-.331-.84 0-1.26.46-1.26 1.38v3.349c0 .92.416 1.38 1.248 1.38.4 0 .71-.116.93-.348.22-.232.33-.576.33-1.032v-.708h-.972a.408.408 0 0 1-.354-.181.729.729 0 0 1-.126-.431c0-.16.044-.302.132-.426a.409.409 0 0 1 .348-.187h2.04c.152 0 .272.05.36.15.088.1.132.219.132.355v1.428c0 .952-.256 1.647-.768 2.088-.512.44-1.196.66-2.052.66-.856 0-1.538-.22-2.046-.66-.508-.441-.762-1.136-.762-2.088zM12 0C5.372 0 0 5.373 0 12c0 6.628 5.372 12 12 12 6.627 0 12-5.372 12-12 0-6.627-5.373-12-12-12m0 1c6.065 0 11 4.935 11 11s-4.935 11-11 11S1 18.065 1 12 5.935 1 12 1"/>
    </defs>
    <g fill="none" fill-rule="evenodd">
        <mask id="b" fill="#fff">
            <use xlink:href="#a"/>
        </mask>
        <use fill="#1D1D1B" xlink:href="#a"/>
        <g fill="#00232C" fill-rule="nonzero" mask="url(#b)">
            <path d="M0 0h24v24H0z"/>
        </g>
    </g>
</svg>
