<svg xmlns="http://www.w3.org/2000/svg" xmlns:xlink="http://www.w3.org/1999/xlink" version="1.1" x="0px" y="0px" viewBox="0 0 90 90" enable-background="new 0 0 90 90" xml:space="preserve"><path d="M72.641,13.017l-1.134-1.01c-0.19-0.17-0.411-0.305-0.652-0.389C67.067,10.245,56.676,9.323,45,9.323  c-11.855,0.002-22.305,0.943-26,2.346c-0.253,0.094-0.48,0.24-0.677,0.424l-1.037,0.992C9.697,20.569,5.518,30.552,5.518,41.198  c0,21.768,17.712,39.479,39.482,39.479s39.482-17.711,39.482-39.479C84.482,30.55,80.303,20.565,72.641,13.017z M66.87,14.749  C63.568,15.552,56.3,16.444,45,16.444c-11.293,0-18.561-0.893-21.862-1.695c4.26-0.771,12.082-1.41,21.862-1.41  C55.125,13.339,62.733,13.989,66.87,14.749z M45,76.663c-19.557,0-35.467-15.91-35.467-35.465c0-9.506,3.717-18.42,10.436-25.109  c4.132,2.553,18.344,2.867,25.031,2.867c6.686,0,20.896-0.314,25.03-2.863c6.728,6.705,10.437,15.609,10.437,25.105  C80.467,60.753,64.557,76.663,45,76.663z"/><path d="M42.567,48.265c-3.193-1.645-6.271-2.561-9.163-2.998v-7.975h2.19v-5.705h-4.38v2.189h-2.011v-2.189h-4.379v2.189h-2.011  v-2.189h-4.379v5.705h2.19v8.986c-2.075,0.646-3.8,1.418-5.053,2.074C18.512,61.905,30.567,72.06,45,72.06  c14.339,0,26.328-10.02,29.365-23.443C58.234,39.104,57.62,56.028,42.567,48.265z M29.19,45.13h-4.352v-4.066  c0-1.203,0.975-2.176,2.176-2.176s2.176,0.973,2.176,2.176V45.13z"/><path d="M70.955,31.126c0,0-5.674-0.842-8.291,4.174c-0.897-1.006-2.316-2.283-4.099-3.293c1.143-1.275,1.29-3.227,1.152-3.418  c-0.155-0.217-2.609-0.816-4.256,0.369c-0.556,0.396-0.945,0.949-1.216,1.512c-0.47-0.068-0.947-0.109-1.434-0.109  c-6.014,0-10.888,5.688-10.888,6.486c0,0.797,4.874,6.484,10.888,6.484c4.424,0,8.223-3.076,9.927-5.02  c1.144,1.854,3.692,4.824,8.216,4.586C70.955,42.897,67.341,36.528,70.955,31.126z M51.485,38.442c0.239,0.238,0.239,0.629,0,0.867  c-0.119,0.121-0.275,0.182-0.434,0.182c-0.157,0-0.314-0.061-0.434-0.182l-1.149-1.15l-1.149,1.15  c-0.119,0.121-0.277,0.182-0.435,0.182s-0.313-0.061-0.434-0.182c-0.24-0.238-0.24-0.629,0-0.867l1.149-1.15l-1.15-1.148  c-0.239-0.238-0.239-0.629,0.001-0.869c0.24-0.238,0.629-0.238,0.868,0l1.149,1.15l1.149-1.15c0.239-0.238,0.629-0.238,0.867,0  c0.239,0.24,0.239,0.631,0,0.869l-1.148,1.148L51.485,38.442z"/></svg>
