<svg xmlns="http://www.w3.org/2000/svg" xmlns:xlink="http://www.w3.org/1999/xlink" width="164" height="66" viewBox="0 0 164 66">
    <defs>
        <path id="b" d="M72.482 38.486c-2.232 2.15-5.451 3.307-9.58 3.48l3.393-3.56a1.53 1.53 0 0 0 0-2.144l-5.324-5.588C55.306 24.73 48.435 20.555 40.93 18.387c.852-5.33 3.211-10.078 6.497-12.75 3.079-2.503 6.79-3.192 11.037-2.044 13.05 3.532 18.619 9.262 18.619 19.16 0 7.712-1.462 12.711-4.6 15.733zM58.98 41.87l-.025-.001c-15.37-1.39-18.378-8.062-18.378-19.117 0-.42.011-.84.03-1.259 6.812 2.045 13.073 5.89 18.25 11.325l4.303 4.516-4.18 4.536zm-35.276-4.46c3.793-4.898 6.2-10.945 6.492-17.605 2.556.074 5.075.394 7.536.938a31.404 31.404 0 0 0-.072 2.01c0 11.539 3.23 19.707 18.472 21.864-7.263 6.412-16.312 10.059-25.936 10.398-.365-6.66-2.7-12.783-6.492-17.604zM59.193.63C54.101-.75 49.414.146 45.638 3.217c-3.862 3.14-6.568 8.429-7.559 14.444a43.75 43.75 0 0 0-9.272-.993H10.575c-.802 0-1.458.689-1.458 1.53 0 .843.656 1.531 1.458 1.531h16.703a27.898 27.898 0 0 1-5.544 15.309c-5.178-5.435-12.399-8.803-20.275-8.803-.803 0-1.46.69-1.46 1.53 0 .844.657 1.533 1.46 1.533 7.147 0 13.638 3.061 18.378 8.036-4.74 4.975-11.231 8.037-18.378 8.037-.803 0-1.46.69-1.46 1.53 0 .842.657 1.532 1.46 1.532 7.876 0 15.097-3.368 20.275-8.802a27.89 27.89 0 0 1 5.544 15.308H10.575c-.802 0-1.458.688-1.458 1.53 0 .843.656 1.531 1.458 1.531h18.233c11.712 0 22.674-4.611 31.152-12.995.623.035 1.237.059 1.832.059 5.428 0 9.68-1.45 12.663-4.322C79.425 35.956 80 28.182 80 22.752 80 11.346 73.583 4.522 59.192.63z"/>
        <filter id="a" width="115%" height="120.7%" x="-7.5%" y="-10.3%" filterUnits="objectBoundingBox">
            <feOffset in="SourceAlpha" result="shadowOffsetOuter1"/>
            <feGaussianBlur in="shadowOffsetOuter1" result="shadowBlurOuter1" stdDeviation="2"/>
            <feColorMatrix in="shadowBlurOuter1" values="0 0 0 0 1 0 0 0 0 1 0 0 0 0 1 0 0 0 0.5 0"/>
        </filter>
    </defs>
    <g fill="none" fill-rule="evenodd">
        <path fill="black" d="M147.492 55.884c0-.17.055-.34.165-.505.112-.164.248-.25.404-.25.104 0 .256.086.452.25.195.166.478.327.844.486.366.159.8.238 1.297.238.655 0 1.13-.12 1.424-.36.294-.242.441-.543.441-.903 0-.442-.163-.792-.49-1.054a3.402 3.402 0 0 0-1.198-.59c-.471-.134-.943-.28-1.415-.442a2.735 2.735 0 0 1-1.198-.802c-.328-.374-.491-.869-.491-1.483 0-.747.264-1.393.796-1.938.53-.544 1.338-.815 2.424-.815.694 0 1.33.105 1.906.317.577.212.865.453.865.722 0 .158-.062.336-.187.534-.125.199-.277.297-.461.297-.052 0-.304-.096-.757-.29a3.39 3.39 0 0 0-1.344-.293c-.603 0-1.052.146-1.347.432-.293.288-.443.612-.443.972 0 .375.166.67.494.883.325.214.728.38 1.206.502.478.12.952.268 1.424.44.472.175.872.472 1.2.893.325.421.49.966.49 1.634 0 .812-.288 1.454-.865 1.925-.574.471-1.382.707-2.415.707-.89 0-1.65-.161-2.28-.485-.628-.323-.941-.664-.941-1.022zm10.037-4.005h3.633c.341 0 .57-.042.688-.13.117-.084.178-.253.178-.504 0-.596-.218-1.117-.65-1.567a2.12 2.12 0 0 0-1.59-.675c-.616 0-1.146.21-1.59.627a2.015 2.015 0 0 0-.669 1.535v.714zm-1.63 1.665v-2.082c0-1.017.382-1.896 1.15-2.636.765-.741 1.683-1.11 2.758-1.11 1.021 0 1.905.346 2.652 1.034.747.691 1.12 1.555 1.12 2.593 0 .389-.046.701-.139.934a.914.914 0 0 1-.421.502c-.19.1-.366.163-.532.191-.162.025-.38.04-.657.04h-4.301v.595c0 .727.257 1.307.775 1.745.518.436 1.19.653 2.014.653.432 0 .808-.066 1.13-.199.32-.132.58-.26.777-.384.194-.127.352-.19.47-.19.183 0 .34.084.47.249.131.165.197.332.197.506 0 .302-.297.614-.893.93-.597.318-1.333.477-2.21.477-1.283 0-2.33-.354-3.143-1.061-.811-.707-1.218-1.637-1.218-2.787zM95.653 33.141h2.868l-1.434-5.313-1.434 5.313zm-4.263 4.165c0-.041.012-.113.04-.22l3.652-12.094c.106-.331.344-.585.718-.763.373-.18.802-.268 1.287-.268.484 0 .912.089 1.287.268.372.178.61.432.716.763l3.674 12.094c.024.107.038.179.038.22 0 .343-.212.64-.638.892a2.58 2.58 0 0 1-1.326.376c-.564 0-.898-.192-1.002-.575l-.667-2.478h-4.146L94.357 38c-.105.383-.44.575-1.002.575-.458 0-.9-.126-1.325-.376-.426-.251-.64-.549-.64-.892zm15.774-2.743c0 .393.147.743.442 1.052.295.306.63.461 1.012.461.392 0 .736-.158 1.03-.473.295-.313.443-.575.443-.786v-1.63c0-.445-.146-.802-.434-1.071a1.425 1.425 0 0 0-1-.402 1.43 1.43 0 0 0-1.051.45c-.295.302-.442.643-.442 1.024v1.375zm-3.045.006V33.18c0-1.15.34-2.132 1.021-2.945.681-.813 1.513-1.22 2.496-1.22.575 0 1.1.147 1.571.44.472.293.831.653 1.079 1.079v-.46c0-.279.132-.507.393-.68.262-.172.596-.26 1.002-.26s.75.086 1.031.26c.282.17.423.394.423.672v11.858c0 .25-.144.471-.431.663-.29.193-.644.287-1.063.287-.418 0-.78-.098-1.09-.297-.307-.197-.46-.416-.46-.654v-4.749c-.197.438-.533.815-1.012 1.127-.478.314-.992.47-1.542.47-.904 0-1.7-.422-2.387-1.27-.688-.845-1.03-1.823-1.03-2.933zm11.196.039v-4.52c0-.239.15-.456.451-.655.3-.198.661-.297 1.08-.297.394 0 .744.099 1.05.297.31.197.462.415.462.652v4.508c0 .383.144.724.432 1.029.29.303.623.455 1.002.455.38 0 .71-.152.993-.455.282-.305.422-.646.422-1.03v-4.527c0-.25.154-.467.462-.651a2.03 2.03 0 0 1 1.07-.278c.433 0 .793.092 1.08.278.288.186.433.403.433.653v4.541c0 1.111-.442 2.083-1.326 2.916-.884.832-1.927 1.248-3.134 1.248a4.443 4.443 0 0 1-3.151-1.248c-.884-.833-1.326-1.805-1.326-2.916zm13.631 1.013c0 .514.256.771.766.771.327 0 .655-.17.983-.514.326-.343.49-.735.49-1.177v-.072h-.078c-.433 0-.79.017-1.072.055-.28.036-.533.132-.754.285a.741.741 0 0 0-.335.652zm-3.064.403c0-1.055.396-1.8 1.189-2.233.79-.433 1.928-.65 3.407-.65h.707v-.209c0-.414-.118-.774-.352-1.079-.237-.304-.61-.456-1.121-.456-.629 0-1.147.122-1.551.366-.406.245-.656.366-.746.366-.315 0-.565-.154-.747-.465a2.044 2.044 0 0 1-.275-1.06c0-.436.363-.81 1.09-1.122a5.723 5.723 0 0 1 2.269-.465c1.505 0 2.628.37 3.368 1.11.74.74 1.11 1.666 1.11 2.776v4.719c0 .264-.142.489-.423.675-.28.185-.638.277-1.07.277-.38 0-.701-.099-.962-.296-.262-.197-.392-.438-.392-.72v-.468c-.905 1.122-1.9 1.682-2.986 1.682-.722 0-1.32-.233-1.798-.701-.478-.469-.717-1.151-.717-2.047zM91.39 53.029v-5.967c0-1.48.39-2.571 1.17-3.273.78-.7 1.797-1.05 3.054-1.05 1.284 0 2.312.327 3.085.98.773.655 1.159 1.478 1.159 2.47 0 .357-.067.598-.197.724-.131.125-.34.188-.629.188-.523 0-.798-.191-.825-.576-.079-1.518-.93-2.28-2.553-2.28-1.743 0-2.612.94-2.612 2.817v5.967c0 1.878.89 2.816 2.671 2.816.51 0 .935-.073 1.277-.217.34-.146.592-.358.756-.637.164-.276.272-.514.324-.712.052-.199.099-.464.137-.793.04-.384.314-.576.825-.576.29 0 .498.066.629.199.13.132.197.377.197.734 0 1.003-.39 1.84-1.17 2.507-.778.669-1.81 1.003-3.093 1.003-1.243 0-2.256-.351-3.034-1.053-.78-.7-1.17-1.79-1.17-3.27zm12.102.51c0 .618.221 1.165.668 1.637.444.472.969.708 1.57.708.616 0 1.145-.24 1.592-.718.444-.481.668-1.021.668-1.627v-2.01c0-.591-.224-1.124-.668-1.596-.447-.474-.976-.71-1.591-.71-.616 0-1.143.236-1.583.71-.437.472-.656 1.005-.656 1.596v2.01zm-1.631.005v-2.022c0-1.018.382-1.906 1.15-2.667.765-.76 1.672-1.14 2.72-1.14 1.047 0 1.957.377 2.73 1.13.773.754 1.16 1.646 1.16 2.677v2.022c0 1.006-.39 1.898-1.171 2.677-.778.781-1.685 1.17-2.72 1.17-1.035 0-1.938-.385-2.71-1.16-.773-.773-1.16-1.67-1.16-2.687zm10.213 3.094V48.41c0-.172.075-.312.225-.417.15-.106.344-.159.58-.159.21 0 .387.055.532.16a.505.505 0 0 1 .215.424v.824a2.913 2.913 0 0 1 1.032-1.095c.45-.288.978-.431 1.58-.431a2.6 2.6 0 0 1 1.622.55c.477.366.833.85 1.07 1.451.326-.653.76-1.151 1.297-1.491.536-.34 1.1-.51 1.688-.51.918 0 1.706.344 2.368 1.031.662.688.992 1.612.992 2.776v5.115c0 .146-.083.282-.246.406a.919.919 0 0 1-.58.189.9.9 0 0 1-.56-.187c-.162-.126-.245-.262-.245-.406v-5.104c0-.71-.206-1.275-.617-1.69-.413-.416-.896-.623-1.446-.623-.55 0-1.038.21-1.463.632-.425.422-.638.963-.638 1.623v5.182a.471.471 0 0 1-.246.425 1.112 1.112 0 0 1-.58.148c-.21 0-.395-.05-.56-.148a.469.469 0 0 1-.244-.425v-5.164c0-.657-.2-1.2-.6-1.63-.4-.428-.88-.643-1.443-.643-.565 0-1.055.21-1.473.632-.42.422-.629.984-.629 1.681v5.104c0 .144-.081.28-.247.406a.924.924 0 0 1-.579.187.914.914 0 0 1-.57-.179c-.156-.118-.235-.257-.235-.416zm17.581-2.566c0 .327.226.712.678 1.152.452.44.965.66 1.543.66.588 0 1.11-.238 1.56-.718.452-.48.679-1.021.679-1.627v-2.01c0-.591-.227-1.123-.678-1.596-.452-.475-.986-.71-1.601-.71-.576 0-1.085.213-1.522.64-.44.427-.659.982-.659 1.665v2.544zm-1.63 7.107v-12.77c0-.171.074-.31.226-.415a.938.938 0 0 1 .56-.16c.223 0 .406.055.55.16a.505.505 0 0 1 .215.424v.824a2.99 2.99 0 0 1 1.042-1.084c.458-.295.989-.442 1.592-.442.981 0 1.816.373 2.503 1.12.687.747 1.031 1.643 1.031 2.687v2.021c0 1.006-.347 1.898-1.04 2.677-.694.78-1.5 1.17-2.415 1.17-.579 0-1.105-.15-1.583-.452-.479-.3-.829-.67-1.05-1.113v5.35c0 .145-.083.283-.245.409a.928.928 0 0 1-.581.189.917.917 0 0 1-.569-.18c-.158-.117-.237-.256-.237-.415zm11.452-7.64c0 .618.221 1.165.668 1.637.444.472.969.708 1.57.708.616 0 1.145-.24 1.592-.718.444-.481.668-1.021.668-1.627v-2.01c0-.591-.224-1.124-.668-1.596-.447-.474-.976-.71-1.591-.71-.617 0-1.143.236-1.583.71-.437.472-.656 1.005-.656 1.596v2.01zm-1.631.005v-2.022c0-1.018.382-1.906 1.15-2.667.765-.76 1.672-1.14 2.72-1.14 1.047 0 1.957.377 2.73 1.13.773.754 1.16 1.646 1.16 2.677v2.022c0 1.006-.39 1.898-1.171 2.677-.778.781-1.684 1.17-2.72 1.17-1.035 0-1.938-.385-2.71-1.16-.773-.773-1.16-1.67-1.16-2.687z"/>
        <g transform="translate(4 4)">
            <use fill="black" filter="url(#a)" xlink:href="#b"/>
            <use fill="black" xlink:href="#b"/>
        </g>
    </g>
</svg>
