<svg xmlns="http://www.w3.org/2000/svg" width="160" height="58" viewBox="0 0 160 58">
    <g fill="#FFF" fill-rule="nonzero">
        <path fill-opacity=".5" d="M22.089 44.355c7.398.655 14.778 2.484 22.134.695 3.267-.794 6.12-1.889 9.044-3.513 2.629-1.46 5.124-1.089 8.038-.816 4.63.432 5.79-8.442 5.722-11.444-.08-3.621-.894-10.993-5.722-11.443-3.124-.292-5.93-.43-8.952.646-2.93 1.043-5.349 2.947-8.418 3.756-7.132 1.88-14.666-.132-21.846-.767-4.633-.41-5.79 8.425-5.722 11.443.08 3.6.896 11.016 5.722 11.443"/>
        <path d="M12.07 40.668c1.186.688 1.419.85 2.46.48 1.05-.372 2.145-1.412 3.096-1.995a71.522 71.522 0 0 1 5.62-3.113c.423-.21-.387-2.861 0-3.053a74.497 74.497 0 0 0-7.428 4.257c-1.962 1.273-2.192 1.462-4.383-.02-1.515-1.026-2.48-2.299-3.16-3.976-.445-1.093-.302-.562-.086-1.49a16.65 16.65 0 0 1 .726-2.35c.568-1.439 2.041-5.313 3.573-6.052.987-.476 3.785 1.57 4.92 2.097a69.31 69.31 0 0 0 4.566 1.94c-.318-.121.357-2.918 0-3.053a70.583 70.583 0 0 1-6.376-2.808c-1.811-.9-2.439-2.157-3.64-.536-1.957 2.643-3.673 5.787-3.988 9.11-.254 2.678-.325 5.934 1.323 8.188.73.996 1.719 1.76 2.778 2.374M13.934 4.31c5.457-1 11.005-1.41 16.48-1.095-.037.347-.102.77-.013.803 7.55 2.872 14.444 5.815 16.644 14.3 2.381 9.184.379 18.838-4.63 26.77-.191.304.187.963 0 1.259 4.172-6.609 5.98-14.155 5.686-21.922-.18-4.76-1.059-10.243-4.183-14.018-3.001-3.626-7.688-5.45-12.048-7.092 7.138.584 14.126 2.438 20.59 5.93 7.217 3.898 13.5 9.581 18.15 16.336.896 1.3 1.777 2.646 2.472 4.068-.397-.813.404-2.222 0-3.053C66.686 13.484 52.469 4.013 38.516 1.13c-8.123-1.678-16.458-1.362-24.582.128-.202.037.158 3.023 0 3.052"/>
        <path d="M68.54 40.973c-5.725 5.736-13.052 9.6-20.831 11.742a57.176 57.176 0 0 1-4.017.948c2.63-1.014 5.225-2.269 7.39-3.955 1.468-1.143.323-2.936-1.181-1.764-2.822 2.199-6.438 3.582-9.797 4.673-6.96 2.262-14.282 3.013-21.579 2.818.751-.73 1.277-1.694 1.458-2.96.237-1.66-2.599-.736-2.787.576-.24 1.69-2.332 2.08-4.406 2.047-1.304-.117-2.603-.26-3.895-.426-1.127-.144-2.819 2.124-1.276 2.403.925.166 2.007.306 3.14.363 8.408.841 16.966.617 25.183-1.358.005.632.432 1.212 1.345 1.175 12.403-.491 25.05-5.97 33.783-14.717 1.323-1.325-1.321-2.775-2.53-1.565M31.321 29.754c.003-7.91-3.231-15.232-9.2-20.463.203.177-.213 1.07 0 1.258 6.237 5.466 10.142 13.874 8.905 22.252-1.096 7.416-6.203 13.829-13.666 15.435-.095.02.077 1.242 0 1.258 9.291-2 13.958-10.801 13.961-19.74"/>
        <path d="M58.548 15.426c.066.407-.068.849 0 1.258 1.604 9.785 2.936 20.222-3.278 28.71-.203.276.196.989 0 1.257 6.635-9.063 4.972-20.887 3.278-31.225M72.184 33.242a12.699 12.699 0 0 0-1.795 3.18c-.217.592-.378 1.124-.577 1.762.586-.296 1.045-.819 1.413-1.292.377-.486.713-.995 1.01-1.526.298-.53.562-1.08.782-1.654.214-.578.403-1.17.48-1.825-.52.404-.929.872-1.313 1.355M67.806 27.3l-.148-.027c-.616-.115-1.277-.034-1.727.456-.318.347-.52.774-.52 1.255 0 .454.198.932.52 1.254.477.476 1.089.575 1.727.457.049-.01.098-.02.148-.028.718-.134 1.313-.969 1.282-1.683-.033-.724-.513-1.54-1.282-1.684M87.413 22.514h2.79l-1.395-5.12-1.395 5.12zm-4.147 4.013c0-.039.013-.108.04-.21l3.552-11.656c.103-.318.335-.564.698-.735.363-.173.781-.258 1.252-.258.472 0 .888.085 1.252.258.363.171.594.417.697.735l3.573 11.655c.025.103.037.172.037.211 0 .331-.206.618-.62.86a2.529 2.529 0 0 1-1.289.362c-.55 0-.874-.185-.975-.553l-.65-2.388h-4.032l-.648 2.388c-.103.368-.428.553-.975.553-.447 0-.876-.12-1.29-.362-.415-.242-.622-.529-.622-.86zM98.61 23.884c0 .38.144.717.43 1.013.288.297.614.446.984.446.382 0 .717-.153 1.003-.456.287-.302.43-.556.43-.758v-1.57c0-.43-.14-.774-.42-1.032a1.394 1.394 0 0 0-.974-.39c-.395 0-.735.147-1.023.436-.286.29-.43.62-.43.986v1.325zm-2.962.006v-1.338c0-1.108.332-2.053.994-2.837.662-.784 1.471-1.176 2.427-1.176.56 0 1.07.142 1.53.425.458.281.808.629 1.049 1.039v-.443c0-.269.127-.489.382-.655.256-.167.58-.25.975-.25.396 0 .73.082 1.003.248.274.165.41.381.41.649v11.427c0 .242-.14.454-.42.64-.28.185-.624.276-1.032.276-.407 0-.76-.095-1.06-.286-.3-.191-.448-.403-.448-.631V26.4c-.191.423-.52.785-.984 1.087a2.708 2.708 0 0 1-1.501.453c-.879 0-1.653-.407-2.321-1.224a4.325 4.325 0 0 1-1.004-2.827zM106.54 23.928v-4.356c0-.23.145-.44.438-.631.292-.191.643-.287 1.051-.287.382 0 .724.096 1.022.287.3.19.45.399.45.627v4.345c0 .369.14.698.419.991.281.292.605.438.975.438s.69-.146.966-.438c.273-.293.41-.622.41-.99V19.55c0-.24.15-.45.45-.628a1.986 1.986 0 0 1 1.04-.268c.422 0 .771.09 1.051.268.28.179.421.389.421.63v4.376c0 1.071-.43 2.007-1.29 2.81a4.32 4.32 0 0 1-3.048 1.202c-1.185 0-2.206-.4-3.067-1.202-.86-.803-1.289-1.739-1.289-2.81M119.799 24.904c0 .496.248.743.745.743.318 0 .638-.165.956-.496.317-.33.477-.707.477-1.133v-.07h-.076c-.422 0-.768.017-1.042.053a1.667 1.667 0 0 0-.735.275.715.715 0 0 0-.325.628m-2.981.389c0-1.017.385-1.736 1.157-2.153.77-.417 1.875-.626 3.315-.626h.687v-.2c0-.4-.115-.747-.343-1.04-.23-.295-.593-.44-1.09-.44-.612 0-1.115.117-1.508.352-.395.236-.638.353-.726.353-.307 0-.55-.15-.727-.448a1.96 1.96 0 0 1-.267-1.023c0-.42.353-.779 1.06-1.079.706-.299 1.441-.45 2.207-.45 1.464 0 2.556.358 3.276 1.07.72.714 1.08 1.606 1.08 2.677v4.546c0 .255-.138.471-.412.65-.273.18-.62.267-1.04.267-.37 0-.683-.094-.936-.286-.255-.19-.382-.42-.382-.693v-.45c-.88 1.081-1.848 1.62-2.905 1.62-.701 0-1.283-.225-1.747-.676-.466-.45-.7-1.108-.7-1.971M83.266 41.68v-5.752c0-1.426.38-2.477 1.139-3.152.757-.675 1.748-1.014 2.97-1.014 1.248 0 2.248.315 3 .947.752.63 1.128 1.423 1.128 2.379 0 .344-.065.576-.19.697-.128.121-.332.182-.614.182-.508 0-.776-.185-.803-.555-.076-1.464-.903-2.198-2.483-2.198-1.694 0-2.54.905-2.54 2.714v5.752c0 1.808.866 2.713 2.598 2.713.496 0 .91-.07 1.243-.21.329-.14.574-.345.735-.612.159-.268.264-.497.314-.688a5.48 5.48 0 0 0 .133-.763c.04-.37.307-.555.803-.555.282 0 .486.064.613.19.126.128.19.365.19.708 0 .967-.378 1.774-1.137 2.417-.757.644-1.76.965-3.009.965-1.21 0-2.194-.337-2.951-1.014-.76-.674-1.139-1.724-1.139-3.151M95.037 42.171c0 .596.216 1.121.65 1.577.433.456.942.682 1.529.682.599 0 1.114-.23 1.547-.692.433-.462.65-.984.65-1.567v-1.938c0-.568-.217-1.082-.65-1.537-.433-.457-.948-.684-1.547-.684-.6 0-1.112.227-1.54.684-.425.455-.639.969-.639 1.537v1.938zm-1.586.005v-1.949c0-.98.372-1.837 1.118-2.57.745-.733 1.626-1.098 2.647-1.098 1.019 0 1.904.362 2.656 1.089.75.726 1.128 1.585 1.128 2.58v1.948c0 .968-.38 1.829-1.139 2.579-.757.753-1.639 1.128-2.645 1.128-1.008 0-1.886-.372-2.637-1.118-.752-.745-1.128-1.608-1.128-2.589zM103.386 45.156v-7.928c0-.167.073-.3.22-.402.146-.102.334-.154.564-.154a.85.85 0 0 1 .516.156c.14.104.21.24.21.407v.795a2.818 2.818 0 0 1 1.003-1.055c.438-.277.952-.416 1.538-.416.586 0 1.112.178 1.577.53.464.353.811.82 1.041 1.398.317-.63.74-1.108 1.261-1.436a3.037 3.037 0 0 1 1.642-.492c.893 0 1.66.331 2.303.994.645.662.966 1.553.966 2.675v4.928c0 .142-.081.273-.24.393a.91.91 0 0 1-.564.181.886.886 0 0 1-.544-.18c-.16-.121-.238-.252-.238-.392v-4.917c0-.686-.2-1.23-.602-1.63-.401-.4-.871-.6-1.406-.6-.534 0-1.009.202-1.422.61-.414.406-.62.926-.62 1.563v4.994c0 .177-.081.315-.24.41-.16.094-.347.142-.565.142-.204 0-.384-.048-.544-.143a.451.451 0 0 1-.238-.409v-4.975c0-.635-.194-1.16-.583-1.573-.389-.412-.857-.619-1.404-.619-.549 0-1.026.202-1.434.61-.407.406-.61.947-.61 1.62v4.917c0 .14-.08.27-.24.392a.91.91 0 0 1-.563.18.898.898 0 0 1-.556-.173c-.152-.112-.228-.246-.228-.4M120.487 42.684c0 .316.22.686.66 1.11.44.425.94.636 1.5.636.573 0 1.08-.23 1.52-.691.438-.464.659-.985.659-1.568v-1.938c0-.568-.22-1.082-.66-1.537-.44-.457-.959-.685-1.557-.685-.56 0-1.054.206-1.48.618-.428.41-.642.945-.642 1.604v2.451zm-1.586 6.848V37.228c0-.166.073-.3.222-.402a.92.92 0 0 1 .543-.153.88.88 0 0 1 .536.155c.14.104.21.24.21.408v.794a2.896 2.896 0 0 1 1.012-1.045c.446-.284.962-.426 1.548-.426.956 0 1.767.36 2.436 1.079.668.72 1.003 1.583 1.003 2.59v1.948c0 .968-.338 1.828-1.013 2.58-.675.752-1.459 1.126-2.35 1.126a2.832 2.832 0 0 1-1.537-.435c-.467-.289-.808-.646-1.024-1.073v5.157c0 .14-.079.272-.238.393a.904.904 0 0 1-.563.182.893.893 0 0 1-.555-.173c-.154-.113-.23-.246-.23-.4zM130.041 42.171c0 .596.216 1.121.65 1.577.433.456.942.682 1.528.682.6 0 1.115-.23 1.548-.692.432-.462.65-.984.65-1.567v-1.938c0-.568-.218-1.082-.65-1.537-.433-.457-.949-.684-1.548-.684-.599 0-1.11.227-1.539.684-.425.455-.639.969-.639 1.537v1.938zm-1.586.005v-1.949c0-.98.372-1.837 1.118-2.57.745-.733 1.626-1.098 2.646-1.098s1.905.362 2.657 1.089c.75.726 1.128 1.585 1.128 2.58v1.948c0 .968-.38 1.829-1.14 2.579-.757.753-1.638 1.128-2.645 1.128-1.007 0-1.885-.372-2.636-1.118-.753-.745-1.128-1.608-1.128-2.589zM137.838 44.43c0-.165.053-.326.162-.486.108-.16.239-.24.392-.24.1 0 .248.08.44.24.19.16.465.315.821.468.356.154.777.23 1.26.23.638 0 1.1-.117 1.387-.349.285-.232.428-.522.428-.868 0-.427-.159-.764-.477-1.016-.319-.25-.706-.44-1.165-.57-.459-.128-.917-.27-1.376-.425a2.662 2.662 0 0 1-1.166-.773c-.318-.361-.477-.837-.477-1.429 0-.72.257-1.342.774-1.868.516-.523 1.301-.785 2.359-.785.675 0 1.294.101 1.854.306.56.204.84.435.84.696 0 .152-.06.323-.182.514-.12.191-.27.287-.448.287-.05 0-.296-.094-.736-.28a3.32 3.32 0 0 0-1.308-.282c-.587 0-1.023.14-1.309.417-.286.276-.431.589-.431.936 0 .36.16.645.48.85.316.207.708.368 1.173.484.464.115.927.258 1.385.424.46.169.848.454 1.166.861.318.405.478.931.478 1.575 0 .782-.28 1.4-.842 1.855-.56.454-1.343.68-2.349.68-.866 0-1.604-.155-2.217-.468-.611-.31-.916-.639-.916-.984M147.602 40.57h3.534c.331 0 .554-.04.669-.123.115-.083.172-.245.172-.487 0-.574-.211-1.077-.631-1.51a2.075 2.075 0 0 0-1.547-.65 2.2 2.2 0 0 0-1.548.604c-.433.4-.65.893-.65 1.48v.687zm-1.587 1.606V40.17c0-.981.372-1.827 1.118-2.54.745-.714 1.64-1.07 2.685-1.07.993 0 1.853.332 2.579.996.726.665 1.089 1.499 1.089 2.498 0 .376-.044.676-.134.9a.885.885 0 0 1-.41.484 1.732 1.732 0 0 1-.517.184 4.26 4.26 0 0 1-.639.039h-4.184v.572c0 .701.25 1.261.754 1.683.504.42 1.156.63 1.959.63.42 0 .785-.065 1.097-.192.314-.127.565-.25.756-.372.19-.12.344-.181.458-.181.178 0 .33.079.458.24.128.158.192.32.192.485 0 .293-.29.593-.87.898-.58.306-1.296.458-2.148.458-1.25 0-2.268-.34-3.058-1.021-.79-.681-1.185-1.577-1.185-2.685z"/>
    </g>
</svg>
