<svg xmlns="http://www.w3.org/2000/svg" xmlns:xlink="http://www.w3.org/1999/xlink" width="24" height="24" viewBox="0 0 24 24">
    <defs>
        <path id="a" d="M12.228 14.567v-7.8c0-.16.076-.28.229-.36.15-.079.335-.12.55-.12.217 0 .402.041.553.12.152.08.229.2.229.36V9.9h2.7V6.767c0-.16.075-.28.227-.36.153-.079.336-.12.552-.12.216 0 .4.041.552.12.152.08.228.2.228.36v7.8c0 .152-.078.272-.234.36a1.09 1.09 0 0 1-.546.132c-.216 0-.4-.044-.552-.132-.152-.088-.227-.208-.227-.36v-3.443h-2.7v3.443c0 .152-.08.272-.235.36a1.093 1.093 0 0 1-.546.132c-.216 0-.4-.044-.551-.132-.153-.088-.23-.208-.23-.36zM7.5 12.918c0 .159.107.346.324.56.216.214.46.322.732.322.28 0 .528-.113.744-.34.216-.226.324-.479.324-.756v-.976a1.03 1.03 0 0 0-.324-.745 1.046 1.046 0 0 0-.768-.328c-.272 0-.512.1-.72.298-.208.199-.312.457-.312.775v1.19zM5.952 17.22V9.84c0-.145.069-.26.21-.349a.963.963 0 0 1 .522-.132c.208 0 .379.045.516.134.136.089.204.206.204.352v.363c.152-.259.369-.477.654-.654a1.78 1.78 0 0 1 .965-.267c.601 0 1.109.238 1.525.715.416.476.624 1.05.624 1.722v.984c0 .647-.212 1.22-.636 1.716-.425.496-.912.744-1.464.744-.344 0-.662-.096-.954-.285-.292-.19-.498-.413-.618-.672v3.008c0 .128-.078.242-.234.343-.157.099-.342.15-.558.15a.932.932 0 0 1-.54-.15c-.145-.1-.216-.214-.216-.342zM12 0C5.372 0 0 5.372 0 12c0 6.627 5.372 12 12 12 6.627 0 12-5.373 12-12 0-6.628-5.373-12-12-12m0 1c6.065 0 11 4.935 11 11s-4.935 11-11 11S1 18.065 1 12 5.935 1 12 1"/>
    </defs>
    <g fill="none" fill-rule="evenodd">
        <mask id="b" fill="#fff">
            <use xlink:href="#a"/>
        </mask>
        <use fill="#1D1D1B" xlink:href="#a"/>
        <g fill="#00232C" fill-rule="nonzero" mask="url(#b)">
            <path d="M0 0h24v24H0z"/>
        </g>
    </g>
</svg>
