<?xml version="1.0" standalone="no"?>
<!DOCTYPE svg PUBLIC "-//W3C//DTD SVG 20010904//EN"
 "http://www.w3.org/TR/2001/REC-SVG-20010904/DTD/svg10.dtd">
<svg version="1.0" xmlns="http://www.w3.org/2000/svg"
 width="700.000000pt" height="700.000000pt" viewBox="0 0 700.000000 700.000000"
 preserveAspectRatio="xMidYMid meet">
<metadata>
Created by potrace 1.11, written by Peter Selinger 2001-2013
</metadata>
<g transform="translate(0.000000,700.000000) scale(0.100000,-0.100000)"
fill="#000000" stroke="none">
<path d="M2785 6259 c-617 -28 -1163 -100 -1319 -174 -46 -22 -278 -262 -382
-396 -300 -384 -503 -825 -594 -1289 -47 -242 -55 -334 -54 -620 1 -285 16
-427 70 -662 266 -1163 1186 -2074 2345 -2322 252 -54 324 -61 649 -61 325 0
397 7 649 61 683 146 1313 537 1750 1087 348 438 555 918 642 1487 19 121 23
189 23 410 1 288 -7 380 -56 624 -54 272 -127 484 -258 752 -137 277 -316 535
-527 755 -131 136 -180 174 -261 199 -221 69 -689 124 -1275 150 -258 11
-1144 11 -1402 -1z m1565 -319 c391 -23 862 -76 820 -92 -11 -4 -74 -17 -138
-28 -783 -132 -2282 -132 -3066 1 -66 11 -126 23 -133 28 -31 17 495 73 857
91 118 6 247 12 285 14 145 7 1207 -3 1375 -14z m-2540 -284 c192 -46 453 -79
840 -108 118 -9 394 -13 850 -13 456 0 732 4 850 13 563 42 893 97 1052 178
l47 24 66 -73 c353 -381 592 -846 689 -1343 43 -219 51 -307 50 -549 -1 -248
-19 -406 -69 -621 -160 -676 -577 -1276 -1158 -1662 -874 -582 -1993 -618
-2907 -94 -25 14 -91 57 -147 94 -581 386 -998 986 -1158 1662 -50 215 -68
373 -69 621 -1 225 7 315 40 505 91 509 338 1000 697 1386 l67 72 77 -34 c43
-18 125 -45 183 -58z"/>
<path d="M4392 4785 c-54 -17 -105 -55 -143 -109 l-30 -41 -117 -1 c-189 -2
-359 -62 -543 -190 -102 -72 -258 -225 -283 -278 l-18 -38 37 -54 c118 -171
398 -361 615 -418 290 -76 622 32 898 291 l73 69 51 -69 c90 -122 254 -234
388 -265 67 -16 190 -26 190 -16 0 5 -14 43 -31 84 -110 270 -110 547 1 759
l39 74 -112 -6 c-124 -6 -215 -31 -314 -88 -67 -38 -152 -121 -188 -184 -15
-25 -29 -45 -32 -45 -3 0 -33 27 -67 61 -55 54 -209 172 -236 181 -6 2 4 32
24 70 35 67 62 168 52 193 -12 33 -171 46 -254 20z m-596 -567 l55 -52 52 52
c57 56 71 61 99 35 27 -25 23 -39 -33 -99 l-52 -54 52 -54 c54 -58 60 -75 35
-100 -26 -27 -53 -18 -108 34 l-52 49 -49 -49 c-49 -50 -80 -61 -103 -38 -23
23 -12 54 38 103 l49 49 -49 52 c-50 53 -62 88 -38 112 22 22 49 12 104 -40z"/>
<path d="M1430 4320 l0 -220 85 0 85 0 -2 -351 -3 -351 -91 -33 c-86 -30 -271
-111 -286 -124 -4 -3 6 -53 22 -111 192 -704 697 -1278 1367 -1556 431 -179
933 -223 1393 -123 429 94 820 305 1134 613 304 298 512 652 622 1054 31 113
41 97 -117 177 -350 177 -645 199 -944 72 -33 -14 -141 -65 -240 -114 -340
-168 -503 -199 -763 -147 -105 21 -217 63 -404 150 -235 110 -427 176 -588
204 -36 6 -73 13 -82 16 -17 5 -18 29 -18 315 l0 309 85 0 85 0 0 220 0 220
-170 0 -170 0 0 -85 0 -85 -80 0 -80 0 0 85 0 85 -170 0 -170 0 0 -85 0 -86
-77 3 -78 3 -3 83 -3 82 -169 0 -170 0 0 -220z m750 -365 c16 -8 42 -31 57
-52 l28 -36 3 -189 3 -188 -170 0 -171 0 0 173 c0 159 2 176 23 217 31 62 76
90 144 90 30 0 67 -7 83 -15z"/>
</g>
</svg>
