<svg xmlns="http://www.w3.org/2000/svg" xmlns:xlink="http://www.w3.org/1999/xlink" width="24" height="24" viewBox="0 0 24 24">
    <defs>
        <path id="a" d="M12 23c-1.654 0-3-1.346-3-3 0-1.052.548-2.01 1.466-2.561l.484-.292V2a1 1 0 0 1 2 0V17.112l.51.286A3.002 3.002 0 0 1 15 20c0 1.654-1.346 3-3 3m1.95-6.473V2c0-1.1-.9-2-2-2-1.099 0-2 .9-2 2v1H8.5a.5.5 0 0 0 0 1h1.45v1H8.5a.5.5 0 0 0 0 1h1.45v1H8.5a.5.5 0 0 0 0 1h1.45v1H8.5a.5.5 0 0 0 0 1h1.45v1H8.5a.5.5 0 0 0 0 1h1.45v1H8.5a.5.5 0 0 0 0 1h1.45v2.582A3.982 3.982 0 0 0 8 20a4 4 0 0 0 8 0c0-1.497-.832-2.787-2.05-3.473"/>
    </defs>
    <g fill="none" fill-rule="evenodd">
        <mask id="b" fill="#fff">
            <use xlink:href="#a"/>
        </mask>
        <use fill="#1D1D1B" xlink:href="#a"/>
        <g fill="#00232C" fill-rule="nonzero" mask="url(#b)">
            <path d="M0 0h24v24H0z"/>
        </g>
    </g>
</svg>
